G04 #@! TF.FileFunction,Soldermask,Top*
%FSLAX46Y46*%
G04 Gerber Fmt 4.6, Leading zero omitted, Abs format (unit mm)*
G04 Created by KiCad (PCBNEW 4.0.4+e1-6308~48~ubuntu15.10.1-stable) date Thu Jul 19 16:03:55 2018*
%MOMM*%
%LPD*%
G01*
G04 APERTURE LIST*
%ADD10C,0.100000*%
%ADD11R,1.540000X1.020000*%
%ADD12R,2.300000X1.400000*%
%ADD13R,0.650000X1.150000*%
%ADD14R,1.150000X0.650000*%
%ADD15R,1.150000X0.750000*%
%ADD16R,0.750000X1.150000*%
%ADD17R,0.800000X1.900000*%
%ADD18R,1.400000X1.400000*%
%ADD19O,1.400000X1.400000*%
%ADD20R,1.650000X1.400000*%
%ADD21C,4.050000*%
%ADD22C,1.900000*%
%ADD23R,1.900000X1.900000*%
%ADD24C,5.900000*%
%ADD25C,3.400000*%
%ADD26C,2.400000*%
%ADD27C,1.700000*%
%ADD28C,1.800000*%
%ADD29R,2.000000X2.000000*%
%ADD30O,2.000000X2.400000*%
%ADD31R,2.500000X3.000000*%
%ADD32R,4.400000X2.900000*%
%ADD33R,1.100000X1.700000*%
%ADD34R,1.000000X0.850000*%
%ADD35R,0.800000X1.050000*%
%ADD36R,2.550000X1.900000*%
%ADD37R,1.700000X1.100000*%
%ADD38R,2.350000X1.900000*%
G04 APERTURE END LIST*
D10*
D11*
X170732240Y-74980840D03*
X170732240Y-76230840D03*
X170732240Y-77505840D03*
X170732240Y-78780840D03*
X170732240Y-80055840D03*
X170732240Y-81330840D03*
X170732240Y-82605840D03*
X170732240Y-83855840D03*
X162207240Y-74955840D03*
X162207240Y-82605840D03*
X162207240Y-81330840D03*
X162207240Y-80055840D03*
X162207240Y-78805840D03*
X162207240Y-77530840D03*
X162207240Y-76205840D03*
X162207240Y-83855840D03*
D12*
X160300000Y-107250000D03*
X168375000Y-107250000D03*
X160325000Y-102150000D03*
X168375000Y-102150000D03*
X160300000Y-96750000D03*
X168375000Y-96750000D03*
X160325000Y-91650000D03*
X168375000Y-91650000D03*
D13*
X129101240Y-89637200D03*
X128601240Y-89637200D03*
X128101240Y-89637200D03*
X127601240Y-89637200D03*
X129101240Y-86537200D03*
X128601240Y-86537200D03*
X127601240Y-86537200D03*
X128101240Y-86537200D03*
D14*
X43047240Y-32140840D03*
X43047240Y-31640840D03*
X43047240Y-31140840D03*
X43047240Y-30640840D03*
X46147240Y-32140840D03*
X46147240Y-31640840D03*
X46147240Y-30640840D03*
X46147240Y-31140840D03*
X43150000Y-68550000D03*
X43150000Y-68050000D03*
X43150000Y-67550000D03*
X43150000Y-67050000D03*
X46250000Y-68550000D03*
X46250000Y-68050000D03*
X46250000Y-67050000D03*
X46250000Y-67550000D03*
D15*
X59197240Y-66865840D03*
X59197240Y-66215840D03*
X59197240Y-65565840D03*
X59197240Y-64915840D03*
X62797240Y-66865840D03*
X62797240Y-66215840D03*
X62797240Y-64915840D03*
X62797240Y-65565840D03*
X59197240Y-61165840D03*
X59197240Y-60515840D03*
X59197240Y-59865840D03*
X59197240Y-59215840D03*
X62797240Y-61165840D03*
X62797240Y-60515840D03*
X62797240Y-59215840D03*
X62797240Y-59865840D03*
X59197240Y-55565840D03*
X59197240Y-54915840D03*
X59197240Y-54265840D03*
X59197240Y-53615840D03*
X62797240Y-55565840D03*
X62797240Y-54915840D03*
X62797240Y-53615840D03*
X62797240Y-54265840D03*
X59197240Y-50065840D03*
X59197240Y-49415840D03*
X59197240Y-48765840D03*
X59197240Y-48115840D03*
X62797240Y-50065840D03*
X62797240Y-49415840D03*
X62797240Y-48115840D03*
X62797240Y-48765840D03*
D16*
X85450240Y-64200000D03*
X86100240Y-64200000D03*
X86750240Y-64200000D03*
X87400240Y-64200000D03*
X85450240Y-67800000D03*
X86100240Y-67800000D03*
X87400240Y-67800000D03*
X86750240Y-67800000D03*
X91025000Y-64200000D03*
X91675000Y-64200000D03*
X92325000Y-64200000D03*
X92975000Y-64200000D03*
X91025000Y-67800000D03*
X91675000Y-67800000D03*
X92975000Y-67800000D03*
X92325000Y-67800000D03*
D17*
X66250000Y-39930000D03*
X66900000Y-39930000D03*
X67550000Y-39930000D03*
X67550000Y-37270000D03*
X66250000Y-37270000D03*
D18*
X35357240Y-110040840D03*
D19*
X34087240Y-110040840D03*
X35357240Y-108770840D03*
X34087240Y-108770840D03*
X35357240Y-107500840D03*
X34087240Y-107500840D03*
X35357240Y-106230840D03*
X34087240Y-106230840D03*
X35357240Y-104960840D03*
X34087240Y-104960840D03*
X35357240Y-103690840D03*
X34087240Y-103690840D03*
X35357240Y-102420840D03*
X34087240Y-102420840D03*
X35357240Y-101150840D03*
X34087240Y-101150840D03*
D20*
X37978040Y-83630000D03*
X37978040Y-85630000D03*
D21*
X184607240Y-94535840D03*
X184582240Y-105965840D03*
D22*
X179582240Y-96715840D03*
D23*
X177532240Y-97740840D03*
D22*
X179582240Y-98740840D03*
X177532240Y-99765840D03*
X179582240Y-100765840D03*
X177532240Y-101790840D03*
X179582240Y-102790840D03*
X177542240Y-103805840D03*
D24*
X176939100Y-25343000D03*
X49088200Y-25001000D03*
X49088200Y-114001000D03*
D25*
X187758200Y-114001000D03*
X187758200Y-25001000D03*
D24*
X176939100Y-113659000D03*
D26*
X141037240Y-108300840D03*
X138497240Y-108300840D03*
X135957240Y-108300840D03*
X133417240Y-108300840D03*
X130877240Y-108300840D03*
X128337240Y-108300840D03*
X90237240Y-108300840D03*
X92777240Y-108300840D03*
X95317240Y-108300840D03*
X97857240Y-108300840D03*
D27*
X73497240Y-96190840D03*
X70957240Y-88570840D03*
X65877240Y-88570840D03*
X58257240Y-96190840D03*
X58257240Y-88570840D03*
X58517240Y-106780840D03*
X61057240Y-106780840D03*
X63597240Y-106780840D03*
X73757240Y-106780840D03*
X73757240Y-99160840D03*
X58517240Y-99160840D03*
D18*
X35357240Y-90040840D03*
D19*
X34087240Y-90040840D03*
X35357240Y-88770840D03*
X34087240Y-88770840D03*
X35357240Y-87500840D03*
X34087240Y-87500840D03*
X35357240Y-86230840D03*
X34087240Y-86230840D03*
X35357240Y-84960840D03*
X34087240Y-84960840D03*
X35357240Y-83690840D03*
X34087240Y-83690840D03*
X35357240Y-82420840D03*
X34087240Y-82420840D03*
X35357240Y-81150840D03*
X34087240Y-81150840D03*
D28*
X188857240Y-82060840D03*
X188857240Y-84600840D03*
D17*
X111000000Y-56830000D03*
X111650000Y-56830000D03*
X112300000Y-56830000D03*
X112300000Y-54170000D03*
X111000000Y-54170000D03*
X71447240Y-39920840D03*
X72097240Y-39920840D03*
X72747240Y-39920840D03*
X72747240Y-37260840D03*
X71447240Y-37260840D03*
X76747240Y-39920840D03*
X77397240Y-39920840D03*
X78047240Y-39920840D03*
X78047240Y-37260840D03*
X76747240Y-37260840D03*
X82247240Y-39920840D03*
X82897240Y-39920840D03*
X83547240Y-39920840D03*
X83547240Y-37260840D03*
X82247240Y-37260840D03*
D29*
X120370000Y-80135000D03*
D30*
X120370000Y-77495000D03*
X117830000Y-80235000D03*
X117830000Y-77495000D03*
X115290000Y-80235000D03*
X115290000Y-77495000D03*
X112750000Y-80235000D03*
X112750000Y-77495000D03*
X110210000Y-80235000D03*
X110210000Y-77495000D03*
X107670000Y-80235000D03*
X107670000Y-77495000D03*
X105130000Y-80235000D03*
X105130000Y-77495000D03*
X102590000Y-80235000D03*
X102590000Y-77495000D03*
X100050000Y-80235000D03*
X100050000Y-77495000D03*
X97510000Y-80235000D03*
X97510000Y-77495000D03*
X94970000Y-80235000D03*
X94970000Y-77495000D03*
X92430000Y-80235000D03*
X92430000Y-77495000D03*
X89890000Y-80235000D03*
X89890000Y-77495000D03*
X87350000Y-80235000D03*
X87350000Y-77495000D03*
X84810000Y-80235000D03*
X84810000Y-77495000D03*
X82270000Y-80235000D03*
X82270000Y-77495000D03*
X79730000Y-80235000D03*
X79730000Y-77495000D03*
X77190000Y-80235000D03*
X77190000Y-77495000D03*
X74650000Y-80235000D03*
X74650000Y-77495000D03*
X72110000Y-80235000D03*
X72110000Y-77495000D03*
X69570000Y-80235000D03*
X69570000Y-77495000D03*
X67030000Y-80235000D03*
X67030000Y-77495000D03*
X64490000Y-80235000D03*
X64490000Y-77495000D03*
D29*
X120340000Y-32115000D03*
D30*
X120340000Y-29475000D03*
X117800000Y-32215000D03*
X117800000Y-29475000D03*
X115260000Y-32215000D03*
X115260000Y-29475000D03*
X112720000Y-32215000D03*
X112720000Y-29475000D03*
X110180000Y-32215000D03*
X110180000Y-29475000D03*
X107640000Y-32215000D03*
X107640000Y-29475000D03*
X105100000Y-32215000D03*
X105100000Y-29475000D03*
X102560000Y-32215000D03*
X102560000Y-29475000D03*
X100020000Y-32215000D03*
X100020000Y-29475000D03*
X97480000Y-32215000D03*
X97480000Y-29475000D03*
X94940000Y-32215000D03*
X94940000Y-29475000D03*
X92400000Y-32215000D03*
X92400000Y-29475000D03*
X89860000Y-32215000D03*
X89860000Y-29475000D03*
X87320000Y-32215000D03*
X87320000Y-29475000D03*
X84780000Y-32215000D03*
X84780000Y-29475000D03*
X82240000Y-32215000D03*
X82240000Y-29475000D03*
X79700000Y-32215000D03*
X79700000Y-29475000D03*
X77160000Y-32215000D03*
X77160000Y-29475000D03*
X74620000Y-32215000D03*
X74620000Y-29475000D03*
X72080000Y-32215000D03*
X72080000Y-29475000D03*
X69540000Y-32215000D03*
X69540000Y-29475000D03*
X67000000Y-32215000D03*
X67000000Y-29475000D03*
X64460000Y-32215000D03*
X64460000Y-29475000D03*
D31*
X105022440Y-91236800D03*
X109922440Y-91236800D03*
X105022440Y-94589600D03*
X109922440Y-94589600D03*
D32*
X93290000Y-91480000D03*
X99390000Y-91480000D03*
D20*
X37978040Y-80448400D03*
X37978040Y-78448400D03*
D33*
X38447240Y-72540840D03*
X40347240Y-72540840D03*
X38450000Y-75950000D03*
X40350000Y-75950000D03*
X39247240Y-27790840D03*
X41147240Y-27790840D03*
X39247240Y-24390840D03*
X41147240Y-24390840D03*
X52250000Y-56850000D03*
X54150000Y-56850000D03*
X52250000Y-51600000D03*
X54150000Y-51600000D03*
X53750000Y-66850000D03*
X55650000Y-66850000D03*
X53750000Y-61750000D03*
X55650000Y-61750000D03*
D21*
X132047240Y-73295840D03*
X132072240Y-61865840D03*
D22*
X137072240Y-71115840D03*
D23*
X139122240Y-70090840D03*
D22*
X137072240Y-69090840D03*
X139122240Y-68065840D03*
X137072240Y-67065840D03*
X139122240Y-66040840D03*
X137072240Y-65040840D03*
X139112240Y-64025840D03*
D21*
X37847240Y-46955000D03*
X37872240Y-35525000D03*
D22*
X42872240Y-44775000D03*
D23*
X44922240Y-43750000D03*
D22*
X42872240Y-42750000D03*
X44922240Y-41725000D03*
X42872240Y-40725000D03*
X44922240Y-39700000D03*
X42872240Y-38700000D03*
X44912240Y-37685000D03*
D21*
X37847240Y-62865840D03*
X37872240Y-51435840D03*
D22*
X42872240Y-60685840D03*
D23*
X44922240Y-59660840D03*
D22*
X42872240Y-58660840D03*
X44922240Y-57635840D03*
X42872240Y-56635840D03*
X44922240Y-55610840D03*
X42872240Y-54610840D03*
X44912240Y-53595840D03*
D20*
X38054240Y-105019600D03*
X38054240Y-107019600D03*
X37927240Y-100263200D03*
X37927240Y-98263200D03*
X136936440Y-88712800D03*
X136936440Y-90712800D03*
D34*
X129198040Y-95808800D03*
X127098040Y-95808800D03*
D33*
X129098040Y-93675200D03*
X127198040Y-93675200D03*
D35*
X132019240Y-88834000D03*
X133319240Y-88834000D03*
X132669240Y-88834000D03*
X133319240Y-86934000D03*
X132019240Y-86934000D03*
X131358840Y-92491600D03*
X132658840Y-92491600D03*
X132008840Y-92491600D03*
X132658840Y-90591600D03*
X131358840Y-90591600D03*
D36*
X124338040Y-85750400D03*
X116088040Y-85750400D03*
D37*
X79532440Y-69154000D03*
X79532440Y-71054000D03*
X79532440Y-67752000D03*
X79532440Y-65852000D03*
D17*
X86786440Y-70670000D03*
X86136440Y-70670000D03*
X85486440Y-70670000D03*
X85486440Y-73330000D03*
X86786440Y-73330000D03*
X92272840Y-70670000D03*
X91622840Y-70670000D03*
X90972840Y-70670000D03*
X90972840Y-73330000D03*
X92272840Y-73330000D03*
D38*
X123528640Y-94691200D03*
X120778640Y-94691200D03*
M02*
