G04 #@! TF.FileFunction,Other,Fab,Top*
%FSLAX46Y46*%
G04 Gerber Fmt 4.6, Leading zero omitted, Abs format (unit mm)*
G04 Created by KiCad (PCBNEW 4.0.4+e1-6308~48~ubuntu15.10.1-stable) date Thu Jul 19 16:03:55 2018*
%MOMM*%
%LPD*%
G01*
G04 APERTURE LIST*
%ADD10C,0.100000*%
%ADD11C,0.120000*%
%ADD12C,0.075000*%
%ADD13C,0.090000*%
%ADD14C,0.150000*%
%ADD15C,0.105000*%
G04 APERTURE END LIST*
D10*
X65800000Y-37925000D02*
X65800000Y-38775000D01*
X66300000Y-39275000D02*
X68000000Y-39275000D01*
X65800000Y-37925000D02*
X68000000Y-37925000D01*
X68000000Y-37925000D02*
X68000000Y-39275000D01*
X65800000Y-38775000D02*
X66300000Y-39275000D01*
X33337240Y-110675840D02*
X32587240Y-110675840D01*
X32587240Y-110675840D02*
X32587240Y-100515840D01*
X32587240Y-100515840D02*
X33587240Y-100515840D01*
X33587240Y-100515840D02*
X33587240Y-110425840D01*
X33587240Y-110425840D02*
X33337240Y-110675840D01*
X35557240Y-110240840D02*
X33587240Y-110240840D01*
X35557240Y-110240840D02*
X35557240Y-109840840D01*
X35557240Y-109840840D02*
X33587240Y-109840840D01*
X32587240Y-110240840D02*
X28587240Y-110240840D01*
X28587240Y-110240840D02*
X28587240Y-109840840D01*
X32587240Y-109840840D02*
X28587240Y-109840840D01*
X35557240Y-108970840D02*
X33587240Y-108970840D01*
X35557240Y-108970840D02*
X35557240Y-108570840D01*
X35557240Y-108570840D02*
X33587240Y-108570840D01*
X32587240Y-108970840D02*
X28587240Y-108970840D01*
X28587240Y-108970840D02*
X28587240Y-108570840D01*
X32587240Y-108570840D02*
X28587240Y-108570840D01*
X35557240Y-107700840D02*
X33587240Y-107700840D01*
X35557240Y-107700840D02*
X35557240Y-107300840D01*
X35557240Y-107300840D02*
X33587240Y-107300840D01*
X32587240Y-107700840D02*
X28587240Y-107700840D01*
X28587240Y-107700840D02*
X28587240Y-107300840D01*
X32587240Y-107300840D02*
X28587240Y-107300840D01*
X35557240Y-106430840D02*
X33587240Y-106430840D01*
X35557240Y-106430840D02*
X35557240Y-106030840D01*
X35557240Y-106030840D02*
X33587240Y-106030840D01*
X32587240Y-106430840D02*
X28587240Y-106430840D01*
X28587240Y-106430840D02*
X28587240Y-106030840D01*
X32587240Y-106030840D02*
X28587240Y-106030840D01*
X35557240Y-105160840D02*
X33587240Y-105160840D01*
X35557240Y-105160840D02*
X35557240Y-104760840D01*
X35557240Y-104760840D02*
X33587240Y-104760840D01*
X32587240Y-105160840D02*
X28587240Y-105160840D01*
X28587240Y-105160840D02*
X28587240Y-104760840D01*
X32587240Y-104760840D02*
X28587240Y-104760840D01*
X35557240Y-103890840D02*
X33587240Y-103890840D01*
X35557240Y-103890840D02*
X35557240Y-103490840D01*
X35557240Y-103490840D02*
X33587240Y-103490840D01*
X32587240Y-103890840D02*
X28587240Y-103890840D01*
X28587240Y-103890840D02*
X28587240Y-103490840D01*
X32587240Y-103490840D02*
X28587240Y-103490840D01*
X35557240Y-102620840D02*
X33587240Y-102620840D01*
X35557240Y-102620840D02*
X35557240Y-102220840D01*
X35557240Y-102220840D02*
X33587240Y-102220840D01*
X32587240Y-102620840D02*
X28587240Y-102620840D01*
X28587240Y-102620840D02*
X28587240Y-102220840D01*
X32587240Y-102220840D02*
X28587240Y-102220840D01*
X35557240Y-101350840D02*
X33587240Y-101350840D01*
X35557240Y-101350840D02*
X35557240Y-100950840D01*
X35557240Y-100950840D02*
X33587240Y-100950840D01*
X32587240Y-101350840D02*
X28587240Y-101350840D01*
X28587240Y-101350840D02*
X28587240Y-100950840D01*
X32587240Y-100950840D02*
X28587240Y-100950840D01*
X37358040Y-83630000D02*
X38598040Y-83630000D01*
X37358040Y-85630000D02*
X37358040Y-83630000D01*
X38598040Y-85630000D02*
X37358040Y-85630000D01*
X38598040Y-83630000D02*
X38598040Y-85630000D01*
X33337240Y-90675840D02*
X32587240Y-90675840D01*
X32587240Y-90675840D02*
X32587240Y-80515840D01*
X32587240Y-80515840D02*
X33587240Y-80515840D01*
X33587240Y-80515840D02*
X33587240Y-90425840D01*
X33587240Y-90425840D02*
X33337240Y-90675840D01*
X35557240Y-90240840D02*
X33587240Y-90240840D01*
X35557240Y-90240840D02*
X35557240Y-89840840D01*
X35557240Y-89840840D02*
X33587240Y-89840840D01*
X32587240Y-90240840D02*
X28587240Y-90240840D01*
X28587240Y-90240840D02*
X28587240Y-89840840D01*
X32587240Y-89840840D02*
X28587240Y-89840840D01*
X35557240Y-88970840D02*
X33587240Y-88970840D01*
X35557240Y-88970840D02*
X35557240Y-88570840D01*
X35557240Y-88570840D02*
X33587240Y-88570840D01*
X32587240Y-88970840D02*
X28587240Y-88970840D01*
X28587240Y-88970840D02*
X28587240Y-88570840D01*
X32587240Y-88570840D02*
X28587240Y-88570840D01*
X35557240Y-87700840D02*
X33587240Y-87700840D01*
X35557240Y-87700840D02*
X35557240Y-87300840D01*
X35557240Y-87300840D02*
X33587240Y-87300840D01*
X32587240Y-87700840D02*
X28587240Y-87700840D01*
X28587240Y-87700840D02*
X28587240Y-87300840D01*
X32587240Y-87300840D02*
X28587240Y-87300840D01*
X35557240Y-86430840D02*
X33587240Y-86430840D01*
X35557240Y-86430840D02*
X35557240Y-86030840D01*
X35557240Y-86030840D02*
X33587240Y-86030840D01*
X32587240Y-86430840D02*
X28587240Y-86430840D01*
X28587240Y-86430840D02*
X28587240Y-86030840D01*
X32587240Y-86030840D02*
X28587240Y-86030840D01*
X35557240Y-85160840D02*
X33587240Y-85160840D01*
X35557240Y-85160840D02*
X35557240Y-84760840D01*
X35557240Y-84760840D02*
X33587240Y-84760840D01*
X32587240Y-85160840D02*
X28587240Y-85160840D01*
X28587240Y-85160840D02*
X28587240Y-84760840D01*
X32587240Y-84760840D02*
X28587240Y-84760840D01*
X35557240Y-83890840D02*
X33587240Y-83890840D01*
X35557240Y-83890840D02*
X35557240Y-83490840D01*
X35557240Y-83490840D02*
X33587240Y-83490840D01*
X32587240Y-83890840D02*
X28587240Y-83890840D01*
X28587240Y-83890840D02*
X28587240Y-83490840D01*
X32587240Y-83490840D02*
X28587240Y-83490840D01*
X35557240Y-82620840D02*
X33587240Y-82620840D01*
X35557240Y-82620840D02*
X35557240Y-82220840D01*
X35557240Y-82220840D02*
X33587240Y-82220840D01*
X32587240Y-82620840D02*
X28587240Y-82620840D01*
X28587240Y-82620840D02*
X28587240Y-82220840D01*
X32587240Y-82220840D02*
X28587240Y-82220840D01*
X35557240Y-81350840D02*
X33587240Y-81350840D01*
X35557240Y-81350840D02*
X35557240Y-80950840D01*
X35557240Y-80950840D02*
X33587240Y-80950840D01*
X32587240Y-81350840D02*
X28587240Y-81350840D01*
X28587240Y-81350840D02*
X28587240Y-80950840D01*
X32587240Y-80950840D02*
X28587240Y-80950840D01*
X110550000Y-54825000D02*
X110550000Y-55675000D01*
X111050000Y-56175000D02*
X112750000Y-56175000D01*
X110550000Y-54825000D02*
X112750000Y-54825000D01*
X112750000Y-54825000D02*
X112750000Y-56175000D01*
X110550000Y-55675000D02*
X111050000Y-56175000D01*
X70997240Y-37915840D02*
X70997240Y-38765840D01*
X71497240Y-39265840D02*
X73197240Y-39265840D01*
X70997240Y-37915840D02*
X73197240Y-37915840D01*
X73197240Y-37915840D02*
X73197240Y-39265840D01*
X70997240Y-38765840D02*
X71497240Y-39265840D01*
X76297240Y-37915840D02*
X76297240Y-38765840D01*
X76797240Y-39265840D02*
X78497240Y-39265840D01*
X76297240Y-37915840D02*
X78497240Y-37915840D01*
X78497240Y-37915840D02*
X78497240Y-39265840D01*
X76297240Y-38765840D02*
X76797240Y-39265840D01*
X81797240Y-37915840D02*
X81797240Y-38765840D01*
X82297240Y-39265840D02*
X83997240Y-39265840D01*
X81797240Y-37915840D02*
X83997240Y-37915840D01*
X83997240Y-37915840D02*
X83997240Y-39265840D01*
X81797240Y-38765840D02*
X82297240Y-39265840D01*
D11*
X109172440Y-90136800D02*
X109172440Y-92336800D01*
X105772440Y-90136800D02*
X105772440Y-92336800D01*
X104572440Y-90136800D02*
X104572440Y-92336800D01*
X104572440Y-92336800D02*
X110372440Y-92336800D01*
X110372440Y-92336800D02*
X110372440Y-90136800D01*
X110372440Y-90136800D02*
X104572440Y-90136800D01*
X109172440Y-93489600D02*
X109172440Y-95689600D01*
X105772440Y-93489600D02*
X105772440Y-95689600D01*
X104572440Y-93489600D02*
X104572440Y-95689600D01*
X104572440Y-95689600D02*
X110372440Y-95689600D01*
X110372440Y-95689600D02*
X110372440Y-93489600D01*
X110372440Y-93489600D02*
X104572440Y-93489600D01*
D10*
X100296008Y-91480000D02*
G75*
G03X100296008Y-91480000I-3956008J0D01*
G01*
X100380000Y-95520000D02*
X100380000Y-87440000D01*
X92970000Y-95520000D02*
X100380000Y-95520000D01*
X92300000Y-94850000D02*
X92970000Y-95520000D01*
X92300000Y-88110000D02*
X92300000Y-94850000D01*
X92970000Y-87440000D02*
X92300000Y-88110000D01*
X100380000Y-87440000D02*
X92970000Y-87440000D01*
X38598040Y-80448400D02*
X37358040Y-80448400D01*
X38598040Y-78448400D02*
X38598040Y-80448400D01*
X37358040Y-78448400D02*
X38598040Y-78448400D01*
X37358040Y-80448400D02*
X37358040Y-78448400D01*
X38397240Y-73160840D02*
X38397240Y-71920840D01*
X40397240Y-73160840D02*
X38397240Y-73160840D01*
X40397240Y-71920840D02*
X40397240Y-73160840D01*
X38397240Y-71920840D02*
X40397240Y-71920840D01*
X38400000Y-76570000D02*
X38400000Y-75330000D01*
X40400000Y-76570000D02*
X38400000Y-76570000D01*
X40400000Y-75330000D02*
X40400000Y-76570000D01*
X38400000Y-75330000D02*
X40400000Y-75330000D01*
X39197240Y-28410840D02*
X39197240Y-27170840D01*
X41197240Y-28410840D02*
X39197240Y-28410840D01*
X41197240Y-27170840D02*
X41197240Y-28410840D01*
X39197240Y-27170840D02*
X41197240Y-27170840D01*
X39197240Y-25010840D02*
X39197240Y-23770840D01*
X41197240Y-25010840D02*
X39197240Y-25010840D01*
X41197240Y-23770840D02*
X41197240Y-25010840D01*
X39197240Y-23770840D02*
X41197240Y-23770840D01*
X52200000Y-57470000D02*
X52200000Y-56230000D01*
X54200000Y-57470000D02*
X52200000Y-57470000D01*
X54200000Y-56230000D02*
X54200000Y-57470000D01*
X52200000Y-56230000D02*
X54200000Y-56230000D01*
X52200000Y-52220000D02*
X52200000Y-50980000D01*
X54200000Y-52220000D02*
X52200000Y-52220000D01*
X54200000Y-50980000D02*
X54200000Y-52220000D01*
X52200000Y-50980000D02*
X54200000Y-50980000D01*
X53700000Y-67470000D02*
X53700000Y-66230000D01*
X55700000Y-67470000D02*
X53700000Y-67470000D01*
X55700000Y-66230000D02*
X55700000Y-67470000D01*
X53700000Y-66230000D02*
X55700000Y-66230000D01*
X53700000Y-62370000D02*
X53700000Y-61130000D01*
X55700000Y-62370000D02*
X53700000Y-62370000D01*
X55700000Y-61130000D02*
X55700000Y-62370000D01*
X53700000Y-61130000D02*
X55700000Y-61130000D01*
X37434240Y-105019600D02*
X38674240Y-105019600D01*
X37434240Y-107019600D02*
X37434240Y-105019600D01*
X38674240Y-107019600D02*
X37434240Y-107019600D01*
X38674240Y-105019600D02*
X38674240Y-107019600D01*
X38547240Y-100263200D02*
X37307240Y-100263200D01*
X38547240Y-98263200D02*
X38547240Y-100263200D01*
X37307240Y-98263200D02*
X38547240Y-98263200D01*
X37307240Y-100263200D02*
X37307240Y-98263200D01*
X136316440Y-88712800D02*
X137556440Y-88712800D01*
X136316440Y-90712800D02*
X136316440Y-88712800D01*
X137556440Y-90712800D02*
X136316440Y-90712800D01*
X137556440Y-88712800D02*
X137556440Y-90712800D01*
X127948040Y-95808800D02*
X127698040Y-95808800D01*
X127948040Y-95458800D02*
X128448040Y-95808800D01*
X127948040Y-96158800D02*
X127948040Y-95458800D01*
X128448040Y-95808800D02*
X127948040Y-96158800D01*
X128448040Y-95808800D02*
X128648040Y-95808800D01*
X128448040Y-96158800D02*
X128448040Y-95458800D01*
X129048040Y-95108800D02*
X129048040Y-96508800D01*
X127248040Y-95108800D02*
X129048040Y-95108800D01*
X127248040Y-96508800D02*
X127248040Y-95108800D01*
X129048040Y-96508800D02*
X127248040Y-96508800D01*
X129148040Y-93055200D02*
X129148040Y-94295200D01*
X127148040Y-93055200D02*
X129148040Y-93055200D01*
X127148040Y-94295200D02*
X127148040Y-93055200D01*
X129148040Y-94295200D02*
X127148040Y-94295200D01*
X131569240Y-87209000D02*
X131569240Y-88059000D01*
X132069240Y-88559000D02*
X133769240Y-88559000D01*
X131569240Y-87209000D02*
X133769240Y-87209000D01*
X133769240Y-87209000D02*
X133769240Y-88559000D01*
X131569240Y-88059000D02*
X132069240Y-88559000D01*
X130908840Y-90866600D02*
X130908840Y-91716600D01*
X131408840Y-92216600D02*
X133108840Y-92216600D01*
X130908840Y-90866600D02*
X133108840Y-90866600D01*
X133108840Y-90866600D02*
X133108840Y-92216600D01*
X130908840Y-91716600D02*
X131408840Y-92216600D01*
X78912440Y-69104000D02*
X80152440Y-69104000D01*
X78912440Y-71104000D02*
X78912440Y-69104000D01*
X80152440Y-71104000D02*
X78912440Y-71104000D01*
X80152440Y-69104000D02*
X80152440Y-71104000D01*
X80152440Y-67802000D02*
X78912440Y-67802000D01*
X80152440Y-65802000D02*
X80152440Y-67802000D01*
X78912440Y-65802000D02*
X80152440Y-65802000D01*
X78912440Y-67802000D02*
X78912440Y-65802000D01*
X87236440Y-72675000D02*
X87236440Y-71825000D01*
X86736440Y-71325000D02*
X85036440Y-71325000D01*
X87236440Y-72675000D02*
X85036440Y-72675000D01*
X85036440Y-72675000D02*
X85036440Y-71325000D01*
X87236440Y-71825000D02*
X86736440Y-71325000D01*
X92722840Y-72675000D02*
X92722840Y-71825000D01*
X92222840Y-71325000D02*
X90522840Y-71325000D01*
X92722840Y-72675000D02*
X90522840Y-72675000D01*
X90522840Y-72675000D02*
X90522840Y-71325000D01*
X92722840Y-71825000D02*
X92222840Y-71325000D01*
X123753640Y-95491200D02*
X123753640Y-93891200D01*
X123753640Y-93891200D02*
X120553640Y-93891200D01*
X120553640Y-93891200D02*
X120553640Y-95491200D01*
X120553640Y-95491200D02*
X123753640Y-95491200D01*
X123433640Y-95491200D02*
X123433640Y-93891200D01*
X123273640Y-95491200D02*
X123273640Y-93891200D01*
D12*
X66519048Y-38326190D02*
X66519048Y-38730952D01*
X66542857Y-38778571D01*
X66566667Y-38802381D01*
X66614286Y-38826190D01*
X66709524Y-38826190D01*
X66757143Y-38802381D01*
X66780952Y-38778571D01*
X66804762Y-38730952D01*
X66804762Y-38326190D01*
X67114286Y-38540476D02*
X67066667Y-38516667D01*
X67042858Y-38492857D01*
X67019048Y-38445238D01*
X67019048Y-38421429D01*
X67042858Y-38373810D01*
X67066667Y-38350000D01*
X67114286Y-38326190D01*
X67209524Y-38326190D01*
X67257143Y-38350000D01*
X67280953Y-38373810D01*
X67304762Y-38421429D01*
X67304762Y-38445238D01*
X67280953Y-38492857D01*
X67257143Y-38516667D01*
X67209524Y-38540476D01*
X67114286Y-38540476D01*
X67066667Y-38564286D01*
X67042858Y-38588095D01*
X67019048Y-38635714D01*
X67019048Y-38730952D01*
X67042858Y-38778571D01*
X67066667Y-38802381D01*
X67114286Y-38826190D01*
X67209524Y-38826190D01*
X67257143Y-38802381D01*
X67280953Y-38778571D01*
X67304762Y-38730952D01*
X67304762Y-38635714D01*
X67280953Y-38588095D01*
X67257143Y-38564286D01*
X67209524Y-38540476D01*
D13*
X33358669Y-106038697D02*
X32758669Y-106038697D01*
X32758669Y-105810125D01*
X32787240Y-105752983D01*
X32815811Y-105724411D01*
X32872954Y-105695840D01*
X32958669Y-105695840D01*
X33015811Y-105724411D01*
X33044383Y-105752983D01*
X33072954Y-105810125D01*
X33072954Y-106038697D01*
X32815811Y-105467268D02*
X32787240Y-105438697D01*
X32758669Y-105381554D01*
X32758669Y-105238697D01*
X32787240Y-105181554D01*
X32815811Y-105152983D01*
X32872954Y-105124411D01*
X32930097Y-105124411D01*
X33015811Y-105152983D01*
X33358669Y-105495840D01*
X33358669Y-105124411D01*
X33358669Y-86038697D02*
X32758669Y-86038697D01*
X32758669Y-85810125D01*
X32787240Y-85752983D01*
X32815811Y-85724411D01*
X32872954Y-85695840D01*
X32958669Y-85695840D01*
X33015811Y-85724411D01*
X33044383Y-85752983D01*
X33072954Y-85810125D01*
X33072954Y-86038697D01*
X33358669Y-85124411D02*
X33358669Y-85467268D01*
X33358669Y-85295840D02*
X32758669Y-85295840D01*
X32844383Y-85352983D01*
X32901526Y-85410125D01*
X32930097Y-85467268D01*
D12*
X111269048Y-55226190D02*
X111269048Y-55630952D01*
X111292857Y-55678571D01*
X111316667Y-55702381D01*
X111364286Y-55726190D01*
X111459524Y-55726190D01*
X111507143Y-55702381D01*
X111530952Y-55678571D01*
X111554762Y-55630952D01*
X111554762Y-55226190D01*
X111745239Y-55226190D02*
X112078572Y-55226190D01*
X111864286Y-55726190D01*
X71716288Y-38317030D02*
X71716288Y-38721792D01*
X71740097Y-38769411D01*
X71763907Y-38793221D01*
X71811526Y-38817030D01*
X71906764Y-38817030D01*
X71954383Y-38793221D01*
X71978192Y-38769411D01*
X72002002Y-38721792D01*
X72002002Y-38317030D01*
X72263907Y-38817030D02*
X72359145Y-38817030D01*
X72406764Y-38793221D01*
X72430574Y-38769411D01*
X72478193Y-38697983D01*
X72502002Y-38602745D01*
X72502002Y-38412269D01*
X72478193Y-38364650D01*
X72454383Y-38340840D01*
X72406764Y-38317030D01*
X72311526Y-38317030D01*
X72263907Y-38340840D01*
X72240098Y-38364650D01*
X72216288Y-38412269D01*
X72216288Y-38531316D01*
X72240098Y-38578935D01*
X72263907Y-38602745D01*
X72311526Y-38626554D01*
X72406764Y-38626554D01*
X72454383Y-38602745D01*
X72478193Y-38578935D01*
X72502002Y-38531316D01*
X76778193Y-38317030D02*
X76778193Y-38721792D01*
X76802002Y-38769411D01*
X76825812Y-38793221D01*
X76873431Y-38817030D01*
X76968669Y-38817030D01*
X77016288Y-38793221D01*
X77040097Y-38769411D01*
X77063907Y-38721792D01*
X77063907Y-38317030D01*
X77563907Y-38817030D02*
X77278193Y-38817030D01*
X77421050Y-38817030D02*
X77421050Y-38317030D01*
X77373431Y-38388459D01*
X77325812Y-38436078D01*
X77278193Y-38459888D01*
X77873431Y-38317030D02*
X77921050Y-38317030D01*
X77968669Y-38340840D01*
X77992478Y-38364650D01*
X78016288Y-38412269D01*
X78040097Y-38507507D01*
X78040097Y-38626554D01*
X78016288Y-38721792D01*
X77992478Y-38769411D01*
X77968669Y-38793221D01*
X77921050Y-38817030D01*
X77873431Y-38817030D01*
X77825812Y-38793221D01*
X77802002Y-38769411D01*
X77778193Y-38721792D01*
X77754383Y-38626554D01*
X77754383Y-38507507D01*
X77778193Y-38412269D01*
X77802002Y-38364650D01*
X77825812Y-38340840D01*
X77873431Y-38317030D01*
X82278193Y-38317030D02*
X82278193Y-38721792D01*
X82302002Y-38769411D01*
X82325812Y-38793221D01*
X82373431Y-38817030D01*
X82468669Y-38817030D01*
X82516288Y-38793221D01*
X82540097Y-38769411D01*
X82563907Y-38721792D01*
X82563907Y-38317030D01*
X83063907Y-38817030D02*
X82778193Y-38817030D01*
X82921050Y-38817030D02*
X82921050Y-38317030D01*
X82873431Y-38388459D01*
X82825812Y-38436078D01*
X82778193Y-38459888D01*
X83540097Y-38817030D02*
X83254383Y-38817030D01*
X83397240Y-38817030D02*
X83397240Y-38317030D01*
X83349621Y-38388459D01*
X83302002Y-38436078D01*
X83254383Y-38459888D01*
D14*
X94143334Y-91470000D02*
X94676667Y-91470000D01*
X94410000Y-91736667D02*
X94410000Y-91203333D01*
D12*
X39313907Y-72767030D02*
X39147240Y-72528935D01*
X39028193Y-72767030D02*
X39028193Y-72267030D01*
X39218669Y-72267030D01*
X39266288Y-72290840D01*
X39290097Y-72314650D01*
X39313907Y-72362269D01*
X39313907Y-72433697D01*
X39290097Y-72481316D01*
X39266288Y-72505126D01*
X39218669Y-72528935D01*
X39028193Y-72528935D01*
X39480574Y-72267030D02*
X39813907Y-72267030D01*
X39599621Y-72767030D01*
X39316667Y-76176190D02*
X39150000Y-75938095D01*
X39030953Y-76176190D02*
X39030953Y-75676190D01*
X39221429Y-75676190D01*
X39269048Y-75700000D01*
X39292857Y-75723810D01*
X39316667Y-75771429D01*
X39316667Y-75842857D01*
X39292857Y-75890476D01*
X39269048Y-75914286D01*
X39221429Y-75938095D01*
X39030953Y-75938095D01*
X39602381Y-75890476D02*
X39554762Y-75866667D01*
X39530953Y-75842857D01*
X39507143Y-75795238D01*
X39507143Y-75771429D01*
X39530953Y-75723810D01*
X39554762Y-75700000D01*
X39602381Y-75676190D01*
X39697619Y-75676190D01*
X39745238Y-75700000D01*
X39769048Y-75723810D01*
X39792857Y-75771429D01*
X39792857Y-75795238D01*
X39769048Y-75842857D01*
X39745238Y-75866667D01*
X39697619Y-75890476D01*
X39602381Y-75890476D01*
X39554762Y-75914286D01*
X39530953Y-75938095D01*
X39507143Y-75985714D01*
X39507143Y-76080952D01*
X39530953Y-76128571D01*
X39554762Y-76152381D01*
X39602381Y-76176190D01*
X39697619Y-76176190D01*
X39745238Y-76152381D01*
X39769048Y-76128571D01*
X39792857Y-76080952D01*
X39792857Y-75985714D01*
X39769048Y-75938095D01*
X39745238Y-75914286D01*
X39697619Y-75890476D01*
X40113907Y-28017030D02*
X39947240Y-27778935D01*
X39828193Y-28017030D02*
X39828193Y-27517030D01*
X40018669Y-27517030D01*
X40066288Y-27540840D01*
X40090097Y-27564650D01*
X40113907Y-27612269D01*
X40113907Y-27683697D01*
X40090097Y-27731316D01*
X40066288Y-27755126D01*
X40018669Y-27778935D01*
X39828193Y-27778935D01*
X40352002Y-28017030D02*
X40447240Y-28017030D01*
X40494859Y-27993221D01*
X40518669Y-27969411D01*
X40566288Y-27897983D01*
X40590097Y-27802745D01*
X40590097Y-27612269D01*
X40566288Y-27564650D01*
X40542478Y-27540840D01*
X40494859Y-27517030D01*
X40399621Y-27517030D01*
X40352002Y-27540840D01*
X40328193Y-27564650D01*
X40304383Y-27612269D01*
X40304383Y-27731316D01*
X40328193Y-27778935D01*
X40352002Y-27802745D01*
X40399621Y-27826554D01*
X40494859Y-27826554D01*
X40542478Y-27802745D01*
X40566288Y-27778935D01*
X40590097Y-27731316D01*
X39875812Y-24617030D02*
X39709145Y-24378935D01*
X39590098Y-24617030D02*
X39590098Y-24117030D01*
X39780574Y-24117030D01*
X39828193Y-24140840D01*
X39852002Y-24164650D01*
X39875812Y-24212269D01*
X39875812Y-24283697D01*
X39852002Y-24331316D01*
X39828193Y-24355126D01*
X39780574Y-24378935D01*
X39590098Y-24378935D01*
X40352002Y-24617030D02*
X40066288Y-24617030D01*
X40209145Y-24617030D02*
X40209145Y-24117030D01*
X40161526Y-24188459D01*
X40113907Y-24236078D01*
X40066288Y-24259888D01*
X40661526Y-24117030D02*
X40709145Y-24117030D01*
X40756764Y-24140840D01*
X40780573Y-24164650D01*
X40804383Y-24212269D01*
X40828192Y-24307507D01*
X40828192Y-24426554D01*
X40804383Y-24521792D01*
X40780573Y-24569411D01*
X40756764Y-24593221D01*
X40709145Y-24617030D01*
X40661526Y-24617030D01*
X40613907Y-24593221D01*
X40590097Y-24569411D01*
X40566288Y-24521792D01*
X40542478Y-24426554D01*
X40542478Y-24307507D01*
X40566288Y-24212269D01*
X40590097Y-24164650D01*
X40613907Y-24140840D01*
X40661526Y-24117030D01*
X52878572Y-57076190D02*
X52711905Y-56838095D01*
X52592858Y-57076190D02*
X52592858Y-56576190D01*
X52783334Y-56576190D01*
X52830953Y-56600000D01*
X52854762Y-56623810D01*
X52878572Y-56671429D01*
X52878572Y-56742857D01*
X52854762Y-56790476D01*
X52830953Y-56814286D01*
X52783334Y-56838095D01*
X52592858Y-56838095D01*
X53354762Y-57076190D02*
X53069048Y-57076190D01*
X53211905Y-57076190D02*
X53211905Y-56576190D01*
X53164286Y-56647619D01*
X53116667Y-56695238D01*
X53069048Y-56719048D01*
X53592857Y-57076190D02*
X53688095Y-57076190D01*
X53735714Y-57052381D01*
X53759524Y-57028571D01*
X53807143Y-56957143D01*
X53830952Y-56861905D01*
X53830952Y-56671429D01*
X53807143Y-56623810D01*
X53783333Y-56600000D01*
X53735714Y-56576190D01*
X53640476Y-56576190D01*
X53592857Y-56600000D01*
X53569048Y-56623810D01*
X53545238Y-56671429D01*
X53545238Y-56790476D01*
X53569048Y-56838095D01*
X53592857Y-56861905D01*
X53640476Y-56885714D01*
X53735714Y-56885714D01*
X53783333Y-56861905D01*
X53807143Y-56838095D01*
X53830952Y-56790476D01*
X52878572Y-51826190D02*
X52711905Y-51588095D01*
X52592858Y-51826190D02*
X52592858Y-51326190D01*
X52783334Y-51326190D01*
X52830953Y-51350000D01*
X52854762Y-51373810D01*
X52878572Y-51421429D01*
X52878572Y-51492857D01*
X52854762Y-51540476D01*
X52830953Y-51564286D01*
X52783334Y-51588095D01*
X52592858Y-51588095D01*
X53069048Y-51373810D02*
X53092858Y-51350000D01*
X53140477Y-51326190D01*
X53259524Y-51326190D01*
X53307143Y-51350000D01*
X53330953Y-51373810D01*
X53354762Y-51421429D01*
X53354762Y-51469048D01*
X53330953Y-51540476D01*
X53045239Y-51826190D01*
X53354762Y-51826190D01*
X53664286Y-51326190D02*
X53711905Y-51326190D01*
X53759524Y-51350000D01*
X53783333Y-51373810D01*
X53807143Y-51421429D01*
X53830952Y-51516667D01*
X53830952Y-51635714D01*
X53807143Y-51730952D01*
X53783333Y-51778571D01*
X53759524Y-51802381D01*
X53711905Y-51826190D01*
X53664286Y-51826190D01*
X53616667Y-51802381D01*
X53592857Y-51778571D01*
X53569048Y-51730952D01*
X53545238Y-51635714D01*
X53545238Y-51516667D01*
X53569048Y-51421429D01*
X53592857Y-51373810D01*
X53616667Y-51350000D01*
X53664286Y-51326190D01*
X54378572Y-67076190D02*
X54211905Y-66838095D01*
X54092858Y-67076190D02*
X54092858Y-66576190D01*
X54283334Y-66576190D01*
X54330953Y-66600000D01*
X54354762Y-66623810D01*
X54378572Y-66671429D01*
X54378572Y-66742857D01*
X54354762Y-66790476D01*
X54330953Y-66814286D01*
X54283334Y-66838095D01*
X54092858Y-66838095D01*
X54569048Y-66623810D02*
X54592858Y-66600000D01*
X54640477Y-66576190D01*
X54759524Y-66576190D01*
X54807143Y-66600000D01*
X54830953Y-66623810D01*
X54854762Y-66671429D01*
X54854762Y-66719048D01*
X54830953Y-66790476D01*
X54545239Y-67076190D01*
X54854762Y-67076190D01*
X55330952Y-67076190D02*
X55045238Y-67076190D01*
X55188095Y-67076190D02*
X55188095Y-66576190D01*
X55140476Y-66647619D01*
X55092857Y-66695238D01*
X55045238Y-66719048D01*
X54378572Y-61976190D02*
X54211905Y-61738095D01*
X54092858Y-61976190D02*
X54092858Y-61476190D01*
X54283334Y-61476190D01*
X54330953Y-61500000D01*
X54354762Y-61523810D01*
X54378572Y-61571429D01*
X54378572Y-61642857D01*
X54354762Y-61690476D01*
X54330953Y-61714286D01*
X54283334Y-61738095D01*
X54092858Y-61738095D01*
X54569048Y-61523810D02*
X54592858Y-61500000D01*
X54640477Y-61476190D01*
X54759524Y-61476190D01*
X54807143Y-61500000D01*
X54830953Y-61523810D01*
X54854762Y-61571429D01*
X54854762Y-61619048D01*
X54830953Y-61690476D01*
X54545239Y-61976190D01*
X54854762Y-61976190D01*
X55045238Y-61523810D02*
X55069048Y-61500000D01*
X55116667Y-61476190D01*
X55235714Y-61476190D01*
X55283333Y-61500000D01*
X55307143Y-61523810D01*
X55330952Y-61571429D01*
X55330952Y-61619048D01*
X55307143Y-61690476D01*
X55021429Y-61976190D01*
X55330952Y-61976190D01*
D14*
D12*
X132050193Y-87610190D02*
X132050193Y-88014952D01*
X132074002Y-88062571D01*
X132097812Y-88086381D01*
X132145431Y-88110190D01*
X132240669Y-88110190D01*
X132288288Y-88086381D01*
X132312097Y-88062571D01*
X132335907Y-88014952D01*
X132335907Y-87610190D01*
X132835907Y-88110190D02*
X132550193Y-88110190D01*
X132693050Y-88110190D02*
X132693050Y-87610190D01*
X132645431Y-87681619D01*
X132597812Y-87729238D01*
X132550193Y-87753048D01*
X133074002Y-88110190D02*
X133169240Y-88110190D01*
X133216859Y-88086381D01*
X133240669Y-88062571D01*
X133288288Y-87991143D01*
X133312097Y-87895905D01*
X133312097Y-87705429D01*
X133288288Y-87657810D01*
X133264478Y-87634000D01*
X133216859Y-87610190D01*
X133121621Y-87610190D01*
X133074002Y-87634000D01*
X133050193Y-87657810D01*
X133026383Y-87705429D01*
X133026383Y-87824476D01*
X133050193Y-87872095D01*
X133074002Y-87895905D01*
X133121621Y-87919714D01*
X133216859Y-87919714D01*
X133264478Y-87895905D01*
X133288288Y-87872095D01*
X133312097Y-87824476D01*
X131389793Y-91267790D02*
X131389793Y-91672552D01*
X131413602Y-91720171D01*
X131437412Y-91743981D01*
X131485031Y-91767790D01*
X131580269Y-91767790D01*
X131627888Y-91743981D01*
X131651697Y-91720171D01*
X131675507Y-91672552D01*
X131675507Y-91267790D01*
X131889793Y-91315410D02*
X131913603Y-91291600D01*
X131961222Y-91267790D01*
X132080269Y-91267790D01*
X132127888Y-91291600D01*
X132151698Y-91315410D01*
X132175507Y-91363029D01*
X132175507Y-91410648D01*
X132151698Y-91482076D01*
X131865984Y-91767790D01*
X132175507Y-91767790D01*
X132365983Y-91315410D02*
X132389793Y-91291600D01*
X132437412Y-91267790D01*
X132556459Y-91267790D01*
X132604078Y-91291600D01*
X132627888Y-91315410D01*
X132651697Y-91363029D01*
X132651697Y-91410648D01*
X132627888Y-91482076D01*
X132342174Y-91767790D01*
X132651697Y-91767790D01*
X79758630Y-70425428D02*
X79520535Y-70592095D01*
X79758630Y-70711142D02*
X79258630Y-70711142D01*
X79258630Y-70520666D01*
X79282440Y-70473047D01*
X79306250Y-70449238D01*
X79353869Y-70425428D01*
X79425297Y-70425428D01*
X79472916Y-70449238D01*
X79496726Y-70473047D01*
X79520535Y-70520666D01*
X79520535Y-70711142D01*
X79258630Y-70258761D02*
X79258630Y-69949238D01*
X79449107Y-70115904D01*
X79449107Y-70044476D01*
X79472916Y-69996857D01*
X79496726Y-69973047D01*
X79544345Y-69949238D01*
X79663392Y-69949238D01*
X79711011Y-69973047D01*
X79734821Y-69996857D01*
X79758630Y-70044476D01*
X79758630Y-70187333D01*
X79734821Y-70234952D01*
X79711011Y-70258761D01*
X79258630Y-69639714D02*
X79258630Y-69592095D01*
X79282440Y-69544476D01*
X79306250Y-69520667D01*
X79353869Y-69496857D01*
X79449107Y-69473048D01*
X79568154Y-69473048D01*
X79663392Y-69496857D01*
X79711011Y-69520667D01*
X79734821Y-69544476D01*
X79758630Y-69592095D01*
X79758630Y-69639714D01*
X79734821Y-69687333D01*
X79711011Y-69711143D01*
X79663392Y-69734952D01*
X79568154Y-69758762D01*
X79449107Y-69758762D01*
X79353869Y-69734952D01*
X79306250Y-69711143D01*
X79282440Y-69687333D01*
X79258630Y-69639714D01*
X79758630Y-67123428D02*
X79520535Y-67290095D01*
X79758630Y-67409142D02*
X79258630Y-67409142D01*
X79258630Y-67218666D01*
X79282440Y-67171047D01*
X79306250Y-67147238D01*
X79353869Y-67123428D01*
X79425297Y-67123428D01*
X79472916Y-67147238D01*
X79496726Y-67171047D01*
X79520535Y-67218666D01*
X79520535Y-67409142D01*
X79258630Y-66956761D02*
X79258630Y-66647238D01*
X79449107Y-66813904D01*
X79449107Y-66742476D01*
X79472916Y-66694857D01*
X79496726Y-66671047D01*
X79544345Y-66647238D01*
X79663392Y-66647238D01*
X79711011Y-66671047D01*
X79734821Y-66694857D01*
X79758630Y-66742476D01*
X79758630Y-66885333D01*
X79734821Y-66932952D01*
X79711011Y-66956761D01*
X79758630Y-66171048D02*
X79758630Y-66456762D01*
X79758630Y-66313905D02*
X79258630Y-66313905D01*
X79330059Y-66361524D01*
X79377678Y-66409143D01*
X79401488Y-66456762D01*
X85517393Y-71726190D02*
X85517393Y-72130952D01*
X85541202Y-72178571D01*
X85565012Y-72202381D01*
X85612631Y-72226190D01*
X85707869Y-72226190D01*
X85755488Y-72202381D01*
X85779297Y-72178571D01*
X85803107Y-72130952D01*
X85803107Y-71726190D01*
X86017393Y-71773810D02*
X86041203Y-71750000D01*
X86088822Y-71726190D01*
X86207869Y-71726190D01*
X86255488Y-71750000D01*
X86279298Y-71773810D01*
X86303107Y-71821429D01*
X86303107Y-71869048D01*
X86279298Y-71940476D01*
X85993584Y-72226190D01*
X86303107Y-72226190D01*
X86755488Y-71726190D02*
X86517393Y-71726190D01*
X86493583Y-71964286D01*
X86517393Y-71940476D01*
X86565012Y-71916667D01*
X86684059Y-71916667D01*
X86731678Y-71940476D01*
X86755488Y-71964286D01*
X86779297Y-72011905D01*
X86779297Y-72130952D01*
X86755488Y-72178571D01*
X86731678Y-72202381D01*
X86684059Y-72226190D01*
X86565012Y-72226190D01*
X86517393Y-72202381D01*
X86493583Y-72178571D01*
X91003793Y-71726190D02*
X91003793Y-72130952D01*
X91027602Y-72178571D01*
X91051412Y-72202381D01*
X91099031Y-72226190D01*
X91194269Y-72226190D01*
X91241888Y-72202381D01*
X91265697Y-72178571D01*
X91289507Y-72130952D01*
X91289507Y-71726190D01*
X91503793Y-71773810D02*
X91527603Y-71750000D01*
X91575222Y-71726190D01*
X91694269Y-71726190D01*
X91741888Y-71750000D01*
X91765698Y-71773810D01*
X91789507Y-71821429D01*
X91789507Y-71869048D01*
X91765698Y-71940476D01*
X91479984Y-72226190D01*
X91789507Y-72226190D01*
X92218078Y-71726190D02*
X92122840Y-71726190D01*
X92075221Y-71750000D01*
X92051412Y-71773810D01*
X92003793Y-71845238D01*
X91979983Y-71940476D01*
X91979983Y-72130952D01*
X92003793Y-72178571D01*
X92027602Y-72202381D01*
X92075221Y-72226190D01*
X92170459Y-72226190D01*
X92218078Y-72202381D01*
X92241888Y-72178571D01*
X92265697Y-72130952D01*
X92265697Y-72011905D01*
X92241888Y-71964286D01*
X92218078Y-71940476D01*
X92170459Y-71916667D01*
X92075221Y-71916667D01*
X92027602Y-71940476D01*
X92003793Y-71964286D01*
X91979983Y-72011905D01*
D15*
X121703640Y-94941200D02*
X121670306Y-94974533D01*
X121570306Y-95007867D01*
X121503640Y-95007867D01*
X121403640Y-94974533D01*
X121336973Y-94907867D01*
X121303640Y-94841200D01*
X121270306Y-94707867D01*
X121270306Y-94607867D01*
X121303640Y-94474533D01*
X121336973Y-94407867D01*
X121403640Y-94341200D01*
X121503640Y-94307867D01*
X121570306Y-94307867D01*
X121670306Y-94341200D01*
X121703640Y-94374533D01*
X121936973Y-94307867D02*
X122370306Y-94307867D01*
X122136973Y-94574533D01*
X122236973Y-94574533D01*
X122303640Y-94607867D01*
X122336973Y-94641200D01*
X122370306Y-94707867D01*
X122370306Y-94874533D01*
X122336973Y-94941200D01*
X122303640Y-94974533D01*
X122236973Y-95007867D01*
X122036973Y-95007867D01*
X121970306Y-94974533D01*
X121936973Y-94941200D01*
X122803640Y-94307867D02*
X122870307Y-94307867D01*
X122936973Y-94341200D01*
X122970307Y-94374533D01*
X123003640Y-94441200D01*
X123036973Y-94574533D01*
X123036973Y-94741200D01*
X123003640Y-94874533D01*
X122970307Y-94941200D01*
X122936973Y-94974533D01*
X122870307Y-95007867D01*
X122803640Y-95007867D01*
X122736973Y-94974533D01*
X122703640Y-94941200D01*
X122670307Y-94874533D01*
X122636973Y-94741200D01*
X122636973Y-94574533D01*
X122670307Y-94441200D01*
X122703640Y-94374533D01*
X122736973Y-94341200D01*
X122803640Y-94307867D01*
M02*
