M48
;DRILL file {KiCad 4.0.4+e1-6308~48~ubuntu15.10.1-stable} date Thu Jul 19 16:03:57 2018
;FORMAT={-:-/ absolute / inch / decimal}
FMAT,2
INCH,TZ
T1C0.016
T2C0.024
T3C0.026
T4C0.031
T5C0.035
T6C0.043
T7C0.118
T8C0.128
%
G90
G05
M72
T1
X1.3572Y-2.138
X1.5007Y-2.715
X1.5572Y-3.956
X1.5632Y-3.288
X1.6032Y-4.024
X1.6397Y-1.2654
X1.6633Y-2.7674
X1.6692Y-4.29
X1.7072Y-1.356
X1.7212Y-3.175
X1.8112Y-3.214
X1.8292Y-2.864
X1.8432Y-2.938
X1.8902Y-1.273
X1.9449Y-2.6063
X1.9566Y-2.789
X2.0767Y-3.2969
X2.1692Y-4.1
X2.1932Y-3.314
X2.2205Y-2.2106
X2.2224Y-2.5
X2.2283Y-2.0256
X2.2692Y-3.196
X2.5944Y-1.6453
X2.6652Y-1.7083
X2.744Y-1.5784
X2.7912Y-1.6453
X2.8818Y-1.7044
X2.9645Y-1.5981
X2.9772Y-2.666
X3.0038Y-1.6414
X3.0983Y-1.6926
X3.1731Y-1.6099
X3.2086Y-1.6374
X3.2552Y-2.798
X3.3052Y-2.948
X3.3272Y-2.546
X3.3503Y-1.6374
X3.4152Y-2.716
X3.4592Y-2.878
X3.4712Y-2.724
X3.5092Y-2.878
X3.5412Y-2.768
X3.5592Y-2.476
X3.5866Y-1.3858
X3.5992Y-2.948
X3.6352Y-2.716
X3.6872Y-2.72
X3.6912Y-2.402
X4.4632Y-3.364
X4.4812Y-3.494
X4.5984Y-2.9508
X4.6377Y-2.2713
X4.7125Y-0.9327
X4.8326Y-2.2122
X4.8759Y-2.2142
X4.895Y-3.508
X4.954Y-3.541
X4.9592Y-3.732
X5.1352Y-3.71
X5.2212Y-3.718
X5.2452Y-3.84
X5.2992Y-3.536
X5.3292Y-3.37
X5.3872Y-3.428
X5.5572Y-3.618
T2
X6.8385Y-3.1201
X6.9223Y-3.1162
T3
X1.342Y-3.1949
X1.342Y-3.2449
X1.342Y-3.2949
X1.342Y-3.3449
X1.342Y-3.3949
X1.342Y-3.4449
X1.342Y-3.4949
X1.342Y-3.5449
X1.342Y-3.9823
X1.342Y-4.0323
X1.342Y-4.0823
X1.342Y-4.1323
X1.342Y-4.1823
X1.342Y-4.2323
X1.342Y-4.2823
X1.342Y-4.3323
X1.392Y-3.1949
X1.392Y-3.2449
X1.392Y-3.2949
X1.392Y-3.3449
X1.392Y-3.3949
X1.392Y-3.4449
X1.392Y-3.4949
X1.392Y-3.5449
X1.392Y-3.9823
X1.392Y-4.0323
X1.392Y-4.0823
X1.392Y-4.1323
X1.392Y-4.1823
X1.392Y-4.2323
X1.392Y-4.2823
X1.392Y-4.3323
T4
X2.2936Y-3.487
X2.2936Y-3.787
X2.3038Y-3.904
X2.3038Y-4.204
X2.4038Y-4.204
X2.5038Y-4.204
X2.5936Y-3.487
X2.7936Y-3.487
X2.8936Y-3.787
X2.9038Y-3.904
X2.9038Y-4.204
X7.4353Y-3.2307
X7.4353Y-3.3307
T5
X1.6879Y-1.5236
X1.6879Y-1.6033
X1.6879Y-1.6831
X1.6879Y-1.7628
X1.6879Y-2.15
X1.6879Y-2.2298
X1.6879Y-2.3095
X1.6879Y-2.3892
X1.7682Y-1.4837
X1.7682Y-2.1101
X1.7686Y-1.563
X1.7686Y-1.6427
X1.7686Y-1.7224
X1.7686Y-2.1894
X1.7686Y-2.2691
X1.7686Y-2.3489
X5.3965Y-2.5607
X5.3965Y-2.6404
X5.3965Y-2.7201
X5.3965Y-2.7998
X5.4769Y-2.5207
X5.4773Y-2.6
X5.4773Y-2.6798
X5.4773Y-2.7595
X6.9895Y-3.8481
X6.9895Y-3.9278
X6.9895Y-4.0075
X6.9899Y-4.0868
X7.0702Y-3.8077
X7.0702Y-3.8874
X7.0702Y-3.9672
X7.0702Y-4.0469
T6
X2.5378Y-1.1644
X2.5378Y-1.2644
X2.539Y-3.0549
X2.539Y-3.1549
X2.6378Y-1.1644
X2.6378Y-1.2644
X2.639Y-3.0549
X2.639Y-3.1549
X2.7378Y-1.1644
X2.7378Y-1.2644
X2.739Y-3.0549
X2.739Y-3.1549
X2.8378Y-1.1644
X2.8378Y-1.2644
X2.839Y-3.0549
X2.839Y-3.1549
X2.9378Y-1.1644
X2.9378Y-1.2644
X2.939Y-3.0549
X2.939Y-3.1549
X3.0378Y-1.1644
X3.0378Y-1.2644
X3.039Y-3.0549
X3.039Y-3.1549
X3.1378Y-1.1644
X3.1378Y-1.2644
X3.139Y-3.0549
X3.139Y-3.1549
X3.2378Y-1.1644
X3.2378Y-1.2644
X3.239Y-3.0549
X3.239Y-3.1549
X3.3378Y-1.1644
X3.3378Y-1.2644
X3.339Y-3.0549
X3.339Y-3.1549
X3.4378Y-1.1644
X3.4378Y-1.2644
X3.439Y-3.0549
X3.439Y-3.1549
X3.5378Y-1.1644
X3.5378Y-1.2644
X3.539Y-3.0549
X3.539Y-3.1549
X3.5526Y-4.2638
X3.6378Y-1.1644
X3.6378Y-1.2644
X3.639Y-3.0549
X3.639Y-3.1549
X3.6526Y-4.2638
X3.7378Y-1.1644
X3.7378Y-1.2644
X3.739Y-3.0549
X3.739Y-3.1549
X3.7526Y-4.2638
X3.8378Y-1.1644
X3.8378Y-1.2644
X3.839Y-3.0549
X3.839Y-3.1549
X3.8526Y-4.2638
X3.9378Y-1.1644
X3.9378Y-1.2644
X3.939Y-3.0549
X3.939Y-3.1549
X4.0378Y-1.1644
X4.0378Y-1.2644
X4.039Y-3.0549
X4.039Y-3.1549
X4.1378Y-1.1644
X4.1378Y-1.2644
X4.139Y-3.0549
X4.139Y-3.1549
X4.2378Y-1.1644
X4.2378Y-1.2644
X4.239Y-3.0549
X4.239Y-3.1549
X4.3378Y-1.1644
X4.3378Y-1.2644
X4.339Y-3.0549
X4.339Y-3.1549
X4.4378Y-1.1644
X4.4378Y-1.2644
X4.439Y-3.0549
X4.439Y-3.1549
X4.5378Y-1.1644
X4.5378Y-1.2644
X4.539Y-3.0549
X4.539Y-3.1549
X4.6378Y-1.1644
X4.6378Y-1.2644
X4.639Y-3.0549
X4.639Y-3.1549
X4.7378Y-1.1644
X4.7378Y-1.2644
X4.739Y-3.0549
X4.739Y-3.1549
X5.0526Y-4.2638
X5.1526Y-4.2638
X5.2526Y-4.2638
X5.3526Y-4.2638
X5.4526Y-4.2638
X5.5526Y-4.2638
T7
X1.9326Y-0.9843
X1.9326Y-4.4882
X6.9661Y-0.9978
X6.9661Y-4.4748
X7.3921Y-0.9843
X7.3921Y-4.4882
T8
X1.49Y-1.8486
X1.49Y-2.475
X1.491Y-1.3986
X1.491Y-2.025
X5.1987Y-2.8857
X5.1997Y-2.4357
X7.267Y-4.1719
X7.268Y-3.7219
T0
M30
