G04 #@! TF.FileFunction,Other,Fab,Bot*
%FSLAX46Y46*%
G04 Gerber Fmt 4.6, Leading zero omitted, Abs format (unit mm)*
G04 Created by KiCad (PCBNEW 4.0.4+e1-6308~48~ubuntu15.10.1-stable) date Thu Jul 19 16:03:55 2018*
%MOMM*%
%LPD*%
G01*
G04 APERTURE LIST*
%ADD10C,0.100000*%
%ADD11C,0.150000*%
%ADD12C,0.075000*%
%ADD13C,0.120000*%
%ADD14C,0.135000*%
G04 APERTURE END LIST*
D10*
X75272240Y-61890840D02*
X74422240Y-61890840D01*
X73922240Y-61390840D02*
X73922240Y-59690840D01*
X75272240Y-61890840D02*
X75272240Y-59690840D01*
X75272240Y-59690840D02*
X73922240Y-59690840D01*
X74422240Y-61890840D02*
X73922240Y-61390840D01*
X75272240Y-46290840D02*
X74422240Y-46290840D01*
X73922240Y-45790840D02*
X73922240Y-44090840D01*
X75272240Y-46290840D02*
X75272240Y-44090840D01*
X75272240Y-44090840D02*
X73922240Y-44090840D01*
X74422240Y-46290840D02*
X73922240Y-45790840D01*
X63840000Y-61680000D02*
X63840000Y-59230000D01*
X64390000Y-62250000D02*
X65240000Y-62250000D01*
X63840000Y-61680000D02*
X64390000Y-62250000D01*
X65240000Y-62250000D02*
X65240000Y-59210000D01*
X63840000Y-59210000D02*
X65240000Y-59210000D01*
X63890000Y-46090000D02*
X63890000Y-43640000D01*
X64440000Y-46660000D02*
X65290000Y-46660000D01*
X63890000Y-46090000D02*
X64440000Y-46660000D01*
X65290000Y-46660000D02*
X65290000Y-43620000D01*
X63890000Y-43620000D02*
X65290000Y-43620000D01*
X185070000Y-77210000D02*
X185070000Y-74760000D01*
X185620000Y-77780000D02*
X186470000Y-77780000D01*
X185070000Y-77210000D02*
X185620000Y-77780000D01*
X186470000Y-77780000D02*
X186470000Y-74740000D01*
X185070000Y-74740000D02*
X186470000Y-74740000D01*
X66200000Y-90780000D02*
X66200000Y-92020000D01*
X68200000Y-90780000D02*
X66200000Y-90780000D01*
X68200000Y-92020000D02*
X68200000Y-90780000D01*
X66200000Y-92020000D02*
X68200000Y-92020000D01*
X53557640Y-108620800D02*
X53557640Y-107380800D01*
X51557640Y-108620800D02*
X53557640Y-108620800D01*
X51557640Y-107380800D02*
X51557640Y-108620800D01*
X53557640Y-107380800D02*
X51557640Y-107380800D01*
X95296440Y-111800400D02*
X95296440Y-113040400D01*
X97296440Y-111800400D02*
X95296440Y-111800400D01*
X97296440Y-113040400D02*
X97296440Y-111800400D01*
X95296440Y-113040400D02*
X97296440Y-113040400D01*
X95296440Y-109971600D02*
X95296440Y-111211600D01*
X97296440Y-109971600D02*
X95296440Y-109971600D01*
X97296440Y-111211600D02*
X97296440Y-109971600D01*
X95296440Y-111211600D02*
X97296440Y-111211600D01*
X52600000Y-41520000D02*
X52600000Y-40280000D01*
X50600000Y-41520000D02*
X52600000Y-41520000D01*
X50600000Y-40280000D02*
X50600000Y-41520000D01*
X52600000Y-40280000D02*
X50600000Y-40280000D01*
X52750000Y-57370000D02*
X52750000Y-56130000D01*
X50750000Y-57370000D02*
X52750000Y-57370000D01*
X50750000Y-56130000D02*
X50750000Y-57370000D01*
X52750000Y-56130000D02*
X50750000Y-56130000D01*
X56997240Y-61170840D02*
X56997240Y-62410840D01*
X58997240Y-61170840D02*
X56997240Y-61170840D01*
X58997240Y-62410840D02*
X58997240Y-61170840D01*
X56997240Y-62410840D02*
X58997240Y-62410840D01*
X56997240Y-45570840D02*
X56997240Y-46810840D01*
X58997240Y-45570840D02*
X56997240Y-45570840D01*
X58997240Y-46810840D02*
X58997240Y-45570840D01*
X56997240Y-46810840D02*
X58997240Y-46810840D01*
X65377240Y-67390840D02*
X66617240Y-67390840D01*
X65377240Y-65390840D02*
X65377240Y-67390840D01*
X66617240Y-65390840D02*
X65377240Y-65390840D01*
X66617240Y-67390840D02*
X66617240Y-65390840D01*
X65377240Y-51790840D02*
X66617240Y-51790840D01*
X65377240Y-49790840D02*
X65377240Y-51790840D01*
X66617240Y-49790840D02*
X65377240Y-49790840D01*
X66617240Y-51790840D02*
X66617240Y-49790840D01*
X66000000Y-94780000D02*
X66000000Y-96020000D01*
X68000000Y-94780000D02*
X66000000Y-94780000D01*
X68000000Y-96020000D02*
X68000000Y-94780000D01*
X66000000Y-96020000D02*
X68000000Y-96020000D01*
X68000000Y-100820000D02*
X68000000Y-99580000D01*
X66000000Y-100820000D02*
X68000000Y-100820000D01*
X66000000Y-99580000D02*
X66000000Y-100820000D01*
X68000000Y-99580000D02*
X66000000Y-99580000D01*
X53600000Y-106620000D02*
X53600000Y-105380000D01*
X51600000Y-106620000D02*
X53600000Y-106620000D01*
X51600000Y-105380000D02*
X51600000Y-106620000D01*
X53600000Y-105380000D02*
X51600000Y-105380000D01*
X51600000Y-101880000D02*
X51600000Y-103120000D01*
X53600000Y-101880000D02*
X51600000Y-101880000D01*
X53600000Y-103120000D02*
X53600000Y-101880000D01*
X51600000Y-103120000D02*
X53600000Y-103120000D01*
X184927240Y-87200840D02*
X184927240Y-88440840D01*
X186927240Y-87200840D02*
X184927240Y-87200840D01*
X186927240Y-88440840D02*
X186927240Y-87200840D01*
X184927240Y-88440840D02*
X186927240Y-88440840D01*
X179427240Y-71250840D02*
X179427240Y-70010840D01*
X177427240Y-71250840D02*
X179427240Y-71250840D01*
X177427240Y-70010840D02*
X177427240Y-71250840D01*
X179427240Y-70010840D02*
X177427240Y-70010840D01*
X52800000Y-64720000D02*
X52800000Y-63480000D01*
X50800000Y-64720000D02*
X52800000Y-64720000D01*
X50800000Y-63480000D02*
X50800000Y-64720000D01*
X52800000Y-63480000D02*
X50800000Y-63480000D01*
X52700000Y-48920000D02*
X52700000Y-47680000D01*
X50700000Y-48920000D02*
X52700000Y-48920000D01*
X50700000Y-47680000D02*
X50700000Y-48920000D01*
X52700000Y-47680000D02*
X50700000Y-47680000D01*
X59530000Y-90800000D02*
X57030000Y-90800000D01*
X59530000Y-94000000D02*
X59530000Y-90800000D01*
X57030000Y-94000000D02*
X59530000Y-94000000D01*
X57030000Y-90800000D02*
X57030000Y-94000000D01*
X139803640Y-82324000D02*
X142603640Y-82324000D01*
X142603640Y-82324000D02*
X142603640Y-85824000D01*
X142603640Y-85824000D02*
X139803640Y-85824000D01*
X139803640Y-85824000D02*
X139803640Y-82324000D01*
X139803640Y-82674000D02*
X142603640Y-82674000D01*
X139803640Y-82849000D02*
X142603640Y-82849000D01*
X140655240Y-88712800D02*
X139415240Y-88712800D01*
X140655240Y-90712800D02*
X140655240Y-88712800D01*
X139415240Y-90712800D02*
X140655240Y-90712800D01*
X139415240Y-88712800D02*
X139415240Y-90712800D01*
X138257240Y-83569200D02*
X138257240Y-83319200D01*
X137907240Y-83569200D02*
X138257240Y-84069200D01*
X138607240Y-83569200D02*
X137907240Y-83569200D01*
X138257240Y-84069200D02*
X138607240Y-83569200D01*
X138257240Y-84069200D02*
X138257240Y-84269200D01*
X138607240Y-84069200D02*
X137907240Y-84069200D01*
X137557240Y-84669200D02*
X138957240Y-84669200D01*
X137557240Y-82869200D02*
X137557240Y-84669200D01*
X138957240Y-82869200D02*
X137557240Y-82869200D01*
X138957240Y-84669200D02*
X138957240Y-82869200D01*
X129983240Y-98901200D02*
X129983240Y-98101200D01*
X129983240Y-98501200D02*
X130583240Y-98901200D01*
X130583240Y-98101200D02*
X129983240Y-98501200D01*
X130583240Y-98901200D02*
X130583240Y-98101200D01*
X131383240Y-97901200D02*
X129383240Y-97901200D01*
X131383240Y-99101200D02*
X131383240Y-97901200D01*
X129383240Y-99101200D02*
X131383240Y-99101200D01*
X129383240Y-97901200D02*
X129383240Y-99101200D01*
X127290840Y-82556400D02*
X128090840Y-82556400D01*
X127690840Y-82556400D02*
X127290840Y-83156400D01*
X128090840Y-83156400D02*
X127690840Y-82556400D01*
X127290840Y-83156400D02*
X128090840Y-83156400D01*
X128290840Y-83956400D02*
X128290840Y-81956400D01*
X127090840Y-83956400D02*
X128290840Y-83956400D01*
X127090840Y-81956400D02*
X127090840Y-83956400D01*
X128290840Y-81956400D02*
X127090840Y-81956400D01*
X135605240Y-84769200D02*
X136845240Y-84769200D01*
X135605240Y-82769200D02*
X135605240Y-84769200D01*
X136845240Y-82769200D02*
X135605240Y-82769200D01*
X136845240Y-84769200D02*
X136845240Y-82769200D01*
X129332440Y-95900000D02*
X129332440Y-97140000D01*
X131332440Y-95900000D02*
X129332440Y-95900000D01*
X131332440Y-97140000D02*
X131332440Y-95900000D01*
X129332440Y-97140000D02*
X131332440Y-97140000D01*
X137383240Y-90712800D02*
X138623240Y-90712800D01*
X137383240Y-88712800D02*
X137383240Y-90712800D01*
X138623240Y-88712800D02*
X137383240Y-88712800D01*
X138623240Y-90712800D02*
X138623240Y-88712800D01*
X130698440Y-81804000D02*
X129458440Y-81804000D01*
X130698440Y-83804000D02*
X130698440Y-81804000D01*
X129458440Y-83804000D02*
X130698440Y-83804000D01*
X129458440Y-81804000D02*
X129458440Y-83804000D01*
D11*
X135638040Y-90713600D02*
X135638040Y-87813600D01*
X135638040Y-87813600D02*
X125738040Y-87813600D01*
X125738040Y-87813600D02*
X125738040Y-91713600D01*
X125738040Y-91713600D02*
X134638040Y-91713600D01*
X134638040Y-91713600D02*
X135638040Y-90713600D01*
D12*
X74323430Y-60171793D02*
X74728192Y-60171793D01*
X74775811Y-60195602D01*
X74799621Y-60219412D01*
X74823430Y-60267031D01*
X74823430Y-60362269D01*
X74799621Y-60409888D01*
X74775811Y-60433697D01*
X74728192Y-60457507D01*
X74323430Y-60457507D01*
X74823430Y-60957507D02*
X74823430Y-60671793D01*
X74823430Y-60814650D02*
X74323430Y-60814650D01*
X74394859Y-60767031D01*
X74442478Y-60719412D01*
X74466288Y-60671793D01*
X74371050Y-61147983D02*
X74347240Y-61171793D01*
X74323430Y-61219412D01*
X74323430Y-61338459D01*
X74347240Y-61386078D01*
X74371050Y-61409888D01*
X74418669Y-61433697D01*
X74466288Y-61433697D01*
X74537716Y-61409888D01*
X74823430Y-61124174D01*
X74823430Y-61433697D01*
X74323430Y-44571793D02*
X74728192Y-44571793D01*
X74775811Y-44595602D01*
X74799621Y-44619412D01*
X74823430Y-44667031D01*
X74823430Y-44762269D01*
X74799621Y-44809888D01*
X74775811Y-44833697D01*
X74728192Y-44857507D01*
X74323430Y-44857507D01*
X74823430Y-45357507D02*
X74823430Y-45071793D01*
X74823430Y-45214650D02*
X74323430Y-45214650D01*
X74394859Y-45167031D01*
X74442478Y-45119412D01*
X74466288Y-45071793D01*
X74323430Y-45524174D02*
X74323430Y-45833697D01*
X74513907Y-45667031D01*
X74513907Y-45738459D01*
X74537716Y-45786078D01*
X74561526Y-45809888D01*
X74609145Y-45833697D01*
X74728192Y-45833697D01*
X74775811Y-45809888D01*
X74799621Y-45786078D01*
X74823430Y-45738459D01*
X74823430Y-45595602D01*
X74799621Y-45547983D01*
X74775811Y-45524174D01*
X64813810Y-60682381D02*
X64790000Y-60634762D01*
X64742381Y-60587143D01*
X64670952Y-60515714D01*
X64647143Y-60468095D01*
X64647143Y-60420476D01*
X64766190Y-60444286D02*
X64742381Y-60396667D01*
X64694762Y-60349048D01*
X64599524Y-60325238D01*
X64432857Y-60325238D01*
X64337619Y-60349048D01*
X64290000Y-60396667D01*
X64266190Y-60444286D01*
X64266190Y-60539524D01*
X64290000Y-60587143D01*
X64337619Y-60634762D01*
X64432857Y-60658571D01*
X64599524Y-60658571D01*
X64694762Y-60634762D01*
X64742381Y-60587143D01*
X64766190Y-60539524D01*
X64766190Y-60444286D01*
X64766190Y-61134762D02*
X64766190Y-60849048D01*
X64766190Y-60991905D02*
X64266190Y-60991905D01*
X64337619Y-60944286D01*
X64385238Y-60896667D01*
X64409048Y-60849048D01*
X64863810Y-45092381D02*
X64840000Y-45044762D01*
X64792381Y-44997143D01*
X64720952Y-44925714D01*
X64697143Y-44878095D01*
X64697143Y-44830476D01*
X64816190Y-44854286D02*
X64792381Y-44806667D01*
X64744762Y-44759048D01*
X64649524Y-44735238D01*
X64482857Y-44735238D01*
X64387619Y-44759048D01*
X64340000Y-44806667D01*
X64316190Y-44854286D01*
X64316190Y-44949524D01*
X64340000Y-44997143D01*
X64387619Y-45044762D01*
X64482857Y-45068571D01*
X64649524Y-45068571D01*
X64744762Y-45044762D01*
X64792381Y-44997143D01*
X64816190Y-44949524D01*
X64816190Y-44854286D01*
X64363810Y-45259048D02*
X64340000Y-45282858D01*
X64316190Y-45330477D01*
X64316190Y-45449524D01*
X64340000Y-45497143D01*
X64363810Y-45520953D01*
X64411429Y-45544762D01*
X64459048Y-45544762D01*
X64530476Y-45520953D01*
X64816190Y-45235239D01*
X64816190Y-45544762D01*
X186043810Y-76212381D02*
X186020000Y-76164762D01*
X185972381Y-76117143D01*
X185900952Y-76045714D01*
X185877143Y-75998095D01*
X185877143Y-75950476D01*
X185996190Y-75974286D02*
X185972381Y-75926667D01*
X185924762Y-75879048D01*
X185829524Y-75855238D01*
X185662857Y-75855238D01*
X185567619Y-75879048D01*
X185520000Y-75926667D01*
X185496190Y-75974286D01*
X185496190Y-76069524D01*
X185520000Y-76117143D01*
X185567619Y-76164762D01*
X185662857Y-76188571D01*
X185829524Y-76188571D01*
X185924762Y-76164762D01*
X185972381Y-76117143D01*
X185996190Y-76069524D01*
X185996190Y-75974286D01*
X185496190Y-76355239D02*
X185496190Y-76664762D01*
X185686667Y-76498096D01*
X185686667Y-76569524D01*
X185710476Y-76617143D01*
X185734286Y-76640953D01*
X185781905Y-76664762D01*
X185900952Y-76664762D01*
X185948571Y-76640953D01*
X185972381Y-76617143D01*
X185996190Y-76569524D01*
X185996190Y-76426667D01*
X185972381Y-76379048D01*
X185948571Y-76355239D01*
D11*
X67316666Y-93150000D02*
X67350000Y-93183333D01*
X67450000Y-93216667D01*
X67516666Y-93216667D01*
X67616666Y-93183333D01*
X67683333Y-93116667D01*
X67716666Y-93050000D01*
X67750000Y-92916667D01*
X67750000Y-92816667D01*
X67716666Y-92683333D01*
X67683333Y-92616667D01*
X67616666Y-92550000D01*
X67516666Y-92516667D01*
X67450000Y-92516667D01*
X67350000Y-92550000D01*
X67316666Y-92583333D01*
X67083333Y-92516667D02*
X66650000Y-92516667D01*
X66883333Y-92783333D01*
X66783333Y-92783333D01*
X66716666Y-92816667D01*
X66683333Y-92850000D01*
X66650000Y-92916667D01*
X66650000Y-93083333D01*
X66683333Y-93150000D01*
X66716666Y-93183333D01*
X66783333Y-93216667D01*
X66983333Y-93216667D01*
X67050000Y-93183333D01*
X67083333Y-93150000D01*
X49778706Y-107895200D02*
X49812040Y-107928533D01*
X49912040Y-107961867D01*
X49978706Y-107961867D01*
X50078706Y-107928533D01*
X50145373Y-107861867D01*
X50178706Y-107795200D01*
X50212040Y-107661867D01*
X50212040Y-107561867D01*
X50178706Y-107428533D01*
X50145373Y-107361867D01*
X50078706Y-107295200D01*
X49978706Y-107261867D01*
X49912040Y-107261867D01*
X49812040Y-107295200D01*
X49778706Y-107328533D01*
X49178706Y-107495200D02*
X49178706Y-107961867D01*
X49345373Y-107228533D02*
X49512040Y-107728533D01*
X49078706Y-107728533D01*
D12*
X51683333Y-41126190D02*
X51850000Y-40888095D01*
X51969047Y-41126190D02*
X51969047Y-40626190D01*
X51778571Y-40626190D01*
X51730952Y-40650000D01*
X51707143Y-40673810D01*
X51683333Y-40721429D01*
X51683333Y-40792857D01*
X51707143Y-40840476D01*
X51730952Y-40864286D01*
X51778571Y-40888095D01*
X51969047Y-40888095D01*
X51207143Y-41126190D02*
X51492857Y-41126190D01*
X51350000Y-41126190D02*
X51350000Y-40626190D01*
X51397619Y-40697619D01*
X51445238Y-40745238D01*
X51492857Y-40769048D01*
X51833333Y-56976190D02*
X52000000Y-56738095D01*
X52119047Y-56976190D02*
X52119047Y-56476190D01*
X51928571Y-56476190D01*
X51880952Y-56500000D01*
X51857143Y-56523810D01*
X51833333Y-56571429D01*
X51833333Y-56642857D01*
X51857143Y-56690476D01*
X51880952Y-56714286D01*
X51928571Y-56738095D01*
X52119047Y-56738095D01*
X51642857Y-56523810D02*
X51619047Y-56500000D01*
X51571428Y-56476190D01*
X51452381Y-56476190D01*
X51404762Y-56500000D01*
X51380952Y-56523810D01*
X51357143Y-56571429D01*
X51357143Y-56619048D01*
X51380952Y-56690476D01*
X51666666Y-56976190D01*
X51357143Y-56976190D01*
X58080573Y-62017030D02*
X58247240Y-61778935D01*
X58366287Y-62017030D02*
X58366287Y-61517030D01*
X58175811Y-61517030D01*
X58128192Y-61540840D01*
X58104383Y-61564650D01*
X58080573Y-61612269D01*
X58080573Y-61683697D01*
X58104383Y-61731316D01*
X58128192Y-61755126D01*
X58175811Y-61778935D01*
X58366287Y-61778935D01*
X57913906Y-61517030D02*
X57604383Y-61517030D01*
X57771049Y-61707507D01*
X57699621Y-61707507D01*
X57652002Y-61731316D01*
X57628192Y-61755126D01*
X57604383Y-61802745D01*
X57604383Y-61921792D01*
X57628192Y-61969411D01*
X57652002Y-61993221D01*
X57699621Y-62017030D01*
X57842478Y-62017030D01*
X57890097Y-61993221D01*
X57913906Y-61969411D01*
X58080573Y-46417030D02*
X58247240Y-46178935D01*
X58366287Y-46417030D02*
X58366287Y-45917030D01*
X58175811Y-45917030D01*
X58128192Y-45940840D01*
X58104383Y-45964650D01*
X58080573Y-46012269D01*
X58080573Y-46083697D01*
X58104383Y-46131316D01*
X58128192Y-46155126D01*
X58175811Y-46178935D01*
X58366287Y-46178935D01*
X57652002Y-46083697D02*
X57652002Y-46417030D01*
X57771049Y-45893221D02*
X57890097Y-46250364D01*
X57580573Y-46250364D01*
X66223430Y-66307507D02*
X65985335Y-66140840D01*
X66223430Y-66021793D02*
X65723430Y-66021793D01*
X65723430Y-66212269D01*
X65747240Y-66259888D01*
X65771050Y-66283697D01*
X65818669Y-66307507D01*
X65890097Y-66307507D01*
X65937716Y-66283697D01*
X65961526Y-66259888D01*
X65985335Y-66212269D01*
X65985335Y-66021793D01*
X65723430Y-66759888D02*
X65723430Y-66521793D01*
X65961526Y-66497983D01*
X65937716Y-66521793D01*
X65913907Y-66569412D01*
X65913907Y-66688459D01*
X65937716Y-66736078D01*
X65961526Y-66759888D01*
X66009145Y-66783697D01*
X66128192Y-66783697D01*
X66175811Y-66759888D01*
X66199621Y-66736078D01*
X66223430Y-66688459D01*
X66223430Y-66569412D01*
X66199621Y-66521793D01*
X66175811Y-66497983D01*
X66223430Y-50707507D02*
X65985335Y-50540840D01*
X66223430Y-50421793D02*
X65723430Y-50421793D01*
X65723430Y-50612269D01*
X65747240Y-50659888D01*
X65771050Y-50683697D01*
X65818669Y-50707507D01*
X65890097Y-50707507D01*
X65937716Y-50683697D01*
X65961526Y-50659888D01*
X65985335Y-50612269D01*
X65985335Y-50421793D01*
X65723430Y-51136078D02*
X65723430Y-51040840D01*
X65747240Y-50993221D01*
X65771050Y-50969412D01*
X65842478Y-50921793D01*
X65937716Y-50897983D01*
X66128192Y-50897983D01*
X66175811Y-50921793D01*
X66199621Y-50945602D01*
X66223430Y-50993221D01*
X66223430Y-51088459D01*
X66199621Y-51136078D01*
X66175811Y-51159888D01*
X66128192Y-51183697D01*
X66009145Y-51183697D01*
X65961526Y-51159888D01*
X65937716Y-51136078D01*
X65913907Y-51088459D01*
X65913907Y-50993221D01*
X65937716Y-50945602D01*
X65961526Y-50921793D01*
X66009145Y-50897983D01*
X67321428Y-95626190D02*
X67488095Y-95388095D01*
X67607142Y-95626190D02*
X67607142Y-95126190D01*
X67416666Y-95126190D01*
X67369047Y-95150000D01*
X67345238Y-95173810D01*
X67321428Y-95221429D01*
X67321428Y-95292857D01*
X67345238Y-95340476D01*
X67369047Y-95364286D01*
X67416666Y-95388095D01*
X67607142Y-95388095D01*
X66845238Y-95626190D02*
X67130952Y-95626190D01*
X66988095Y-95626190D02*
X66988095Y-95126190D01*
X67035714Y-95197619D01*
X67083333Y-95245238D01*
X67130952Y-95269048D01*
X66678571Y-95126190D02*
X66369048Y-95126190D01*
X66535714Y-95316667D01*
X66464286Y-95316667D01*
X66416667Y-95340476D01*
X66392857Y-95364286D01*
X66369048Y-95411905D01*
X66369048Y-95530952D01*
X66392857Y-95578571D01*
X66416667Y-95602381D01*
X66464286Y-95626190D01*
X66607143Y-95626190D01*
X66654762Y-95602381D01*
X66678571Y-95578571D01*
X67321428Y-100426190D02*
X67488095Y-100188095D01*
X67607142Y-100426190D02*
X67607142Y-99926190D01*
X67416666Y-99926190D01*
X67369047Y-99950000D01*
X67345238Y-99973810D01*
X67321428Y-100021429D01*
X67321428Y-100092857D01*
X67345238Y-100140476D01*
X67369047Y-100164286D01*
X67416666Y-100188095D01*
X67607142Y-100188095D01*
X66845238Y-100426190D02*
X67130952Y-100426190D01*
X66988095Y-100426190D02*
X66988095Y-99926190D01*
X67035714Y-99997619D01*
X67083333Y-100045238D01*
X67130952Y-100069048D01*
X66416667Y-100092857D02*
X66416667Y-100426190D01*
X66535714Y-99902381D02*
X66654762Y-100259524D01*
X66345238Y-100259524D01*
X52921428Y-102726190D02*
X53088095Y-102488095D01*
X53207142Y-102726190D02*
X53207142Y-102226190D01*
X53016666Y-102226190D01*
X52969047Y-102250000D01*
X52945238Y-102273810D01*
X52921428Y-102321429D01*
X52921428Y-102392857D01*
X52945238Y-102440476D01*
X52969047Y-102464286D01*
X53016666Y-102488095D01*
X53207142Y-102488095D01*
X52445238Y-102726190D02*
X52730952Y-102726190D01*
X52588095Y-102726190D02*
X52588095Y-102226190D01*
X52635714Y-102297619D01*
X52683333Y-102345238D01*
X52730952Y-102369048D01*
X52016667Y-102226190D02*
X52111905Y-102226190D01*
X52159524Y-102250000D01*
X52183333Y-102273810D01*
X52230952Y-102345238D01*
X52254762Y-102440476D01*
X52254762Y-102630952D01*
X52230952Y-102678571D01*
X52207143Y-102702381D01*
X52159524Y-102726190D01*
X52064286Y-102726190D01*
X52016667Y-102702381D01*
X51992857Y-102678571D01*
X51969048Y-102630952D01*
X51969048Y-102511905D01*
X51992857Y-102464286D01*
X52016667Y-102440476D01*
X52064286Y-102416667D01*
X52159524Y-102416667D01*
X52207143Y-102440476D01*
X52230952Y-102464286D01*
X52254762Y-102511905D01*
X186248668Y-88047030D02*
X186415335Y-87808935D01*
X186534382Y-88047030D02*
X186534382Y-87547030D01*
X186343906Y-87547030D01*
X186296287Y-87570840D01*
X186272478Y-87594650D01*
X186248668Y-87642269D01*
X186248668Y-87713697D01*
X186272478Y-87761316D01*
X186296287Y-87785126D01*
X186343906Y-87808935D01*
X186534382Y-87808935D01*
X185772478Y-88047030D02*
X186058192Y-88047030D01*
X185915335Y-88047030D02*
X185915335Y-87547030D01*
X185962954Y-87618459D01*
X186010573Y-87666078D01*
X186058192Y-87689888D01*
X185605811Y-87547030D02*
X185272478Y-87547030D01*
X185486764Y-88047030D01*
X178748668Y-70857030D02*
X178915335Y-70618935D01*
X179034382Y-70857030D02*
X179034382Y-70357030D01*
X178843906Y-70357030D01*
X178796287Y-70380840D01*
X178772478Y-70404650D01*
X178748668Y-70452269D01*
X178748668Y-70523697D01*
X178772478Y-70571316D01*
X178796287Y-70595126D01*
X178843906Y-70618935D01*
X179034382Y-70618935D01*
X178272478Y-70857030D02*
X178558192Y-70857030D01*
X178415335Y-70857030D02*
X178415335Y-70357030D01*
X178462954Y-70428459D01*
X178510573Y-70476078D01*
X178558192Y-70499888D01*
X177986764Y-70571316D02*
X178034383Y-70547507D01*
X178058192Y-70523697D01*
X178082002Y-70476078D01*
X178082002Y-70452269D01*
X178058192Y-70404650D01*
X178034383Y-70380840D01*
X177986764Y-70357030D01*
X177891526Y-70357030D01*
X177843907Y-70380840D01*
X177820097Y-70404650D01*
X177796288Y-70452269D01*
X177796288Y-70476078D01*
X177820097Y-70523697D01*
X177843907Y-70547507D01*
X177891526Y-70571316D01*
X177986764Y-70571316D01*
X178034383Y-70595126D01*
X178058192Y-70618935D01*
X178082002Y-70666554D01*
X178082002Y-70761792D01*
X178058192Y-70809411D01*
X178034383Y-70833221D01*
X177986764Y-70857030D01*
X177891526Y-70857030D01*
X177843907Y-70833221D01*
X177820097Y-70809411D01*
X177796288Y-70761792D01*
X177796288Y-70666554D01*
X177820097Y-70618935D01*
X177843907Y-70595126D01*
X177891526Y-70571316D01*
X52121428Y-64326190D02*
X52288095Y-64088095D01*
X52407142Y-64326190D02*
X52407142Y-63826190D01*
X52216666Y-63826190D01*
X52169047Y-63850000D01*
X52145238Y-63873810D01*
X52121428Y-63921429D01*
X52121428Y-63992857D01*
X52145238Y-64040476D01*
X52169047Y-64064286D01*
X52216666Y-64088095D01*
X52407142Y-64088095D01*
X51930952Y-63873810D02*
X51907142Y-63850000D01*
X51859523Y-63826190D01*
X51740476Y-63826190D01*
X51692857Y-63850000D01*
X51669047Y-63873810D01*
X51645238Y-63921429D01*
X51645238Y-63969048D01*
X51669047Y-64040476D01*
X51954761Y-64326190D01*
X51645238Y-64326190D01*
X51478571Y-63826190D02*
X51169048Y-63826190D01*
X51335714Y-64016667D01*
X51264286Y-64016667D01*
X51216667Y-64040476D01*
X51192857Y-64064286D01*
X51169048Y-64111905D01*
X51169048Y-64230952D01*
X51192857Y-64278571D01*
X51216667Y-64302381D01*
X51264286Y-64326190D01*
X51407143Y-64326190D01*
X51454762Y-64302381D01*
X51478571Y-64278571D01*
X52021428Y-48526190D02*
X52188095Y-48288095D01*
X52307142Y-48526190D02*
X52307142Y-48026190D01*
X52116666Y-48026190D01*
X52069047Y-48050000D01*
X52045238Y-48073810D01*
X52021428Y-48121429D01*
X52021428Y-48192857D01*
X52045238Y-48240476D01*
X52069047Y-48264286D01*
X52116666Y-48288095D01*
X52307142Y-48288095D01*
X51830952Y-48073810D02*
X51807142Y-48050000D01*
X51759523Y-48026190D01*
X51640476Y-48026190D01*
X51592857Y-48050000D01*
X51569047Y-48073810D01*
X51545238Y-48121429D01*
X51545238Y-48169048D01*
X51569047Y-48240476D01*
X51854761Y-48526190D01*
X51545238Y-48526190D01*
X51116667Y-48192857D02*
X51116667Y-48526190D01*
X51235714Y-48002381D02*
X51354762Y-48359524D01*
X51045238Y-48359524D01*
D11*
D13*
X141489354Y-83559714D02*
X141527450Y-83521619D01*
X141565545Y-83407333D01*
X141565545Y-83331143D01*
X141527450Y-83216857D01*
X141451259Y-83140666D01*
X141375069Y-83102571D01*
X141222688Y-83064476D01*
X141108402Y-83064476D01*
X140956021Y-83102571D01*
X140879830Y-83140666D01*
X140803640Y-83216857D01*
X140765545Y-83331143D01*
X140765545Y-83407333D01*
X140803640Y-83521619D01*
X140841735Y-83559714D01*
X140841735Y-83864476D02*
X140803640Y-83902571D01*
X140765545Y-83978762D01*
X140765545Y-84169238D01*
X140803640Y-84245428D01*
X140841735Y-84283524D01*
X140917926Y-84321619D01*
X140994116Y-84321619D01*
X141108402Y-84283524D01*
X141565545Y-83826381D01*
X141565545Y-84321619D01*
X140765545Y-84588286D02*
X140765545Y-85121619D01*
X141565545Y-84778762D01*
D11*
X138892383Y-89069943D02*
X138940002Y-89022324D01*
X138987621Y-88879467D01*
X138987621Y-88784229D01*
X138940002Y-88641371D01*
X138844764Y-88546133D01*
X138749526Y-88498514D01*
X138559050Y-88450895D01*
X138416192Y-88450895D01*
X138225716Y-88498514D01*
X138130478Y-88546133D01*
X138035240Y-88641371D01*
X137987621Y-88784229D01*
X137987621Y-88879467D01*
X138035240Y-89022324D01*
X138082859Y-89069943D01*
X138082859Y-89450895D02*
X138035240Y-89498514D01*
X137987621Y-89593752D01*
X137987621Y-89831848D01*
X138035240Y-89927086D01*
X138082859Y-89974705D01*
X138178097Y-90022324D01*
X138273335Y-90022324D01*
X138416192Y-89974705D01*
X138987621Y-89403276D01*
X138987621Y-90022324D01*
X138416192Y-90593752D02*
X138368573Y-90498514D01*
X138320954Y-90450895D01*
X138225716Y-90403276D01*
X138178097Y-90403276D01*
X138082859Y-90450895D01*
X138035240Y-90498514D01*
X137987621Y-90593752D01*
X137987621Y-90784229D01*
X138035240Y-90879467D01*
X138082859Y-90927086D01*
X138178097Y-90974705D01*
X138225716Y-90974705D01*
X138320954Y-90927086D01*
X138368573Y-90879467D01*
X138416192Y-90784229D01*
X138416192Y-90593752D01*
X138463811Y-90498514D01*
X138511430Y-90450895D01*
X138606669Y-90403276D01*
X138797145Y-90403276D01*
X138892383Y-90450895D01*
X138940002Y-90498514D01*
X138987621Y-90593752D01*
X138987621Y-90784229D01*
X138940002Y-90879467D01*
X138892383Y-90927086D01*
X138797145Y-90974705D01*
X138606669Y-90974705D01*
X138511430Y-90927086D01*
X138463811Y-90879467D01*
X138416192Y-90784229D01*
X140559621Y-83031105D02*
X139559621Y-83031105D01*
X139559621Y-83269200D01*
X139607240Y-83412058D01*
X139702478Y-83507296D01*
X139797716Y-83554915D01*
X139988192Y-83602534D01*
X140131050Y-83602534D01*
X140321526Y-83554915D01*
X140416764Y-83507296D01*
X140512002Y-83412058D01*
X140559621Y-83269200D01*
X140559621Y-83031105D01*
X140559621Y-84078724D02*
X140559621Y-84269200D01*
X140512002Y-84364439D01*
X140464383Y-84412058D01*
X140321526Y-84507296D01*
X140131050Y-84554915D01*
X139750097Y-84554915D01*
X139654859Y-84507296D01*
X139607240Y-84459677D01*
X139559621Y-84364439D01*
X139559621Y-84173962D01*
X139607240Y-84078724D01*
X139654859Y-84031105D01*
X139750097Y-83983486D01*
X139988192Y-83983486D01*
X140083430Y-84031105D01*
X140131050Y-84078724D01*
X140178669Y-84173962D01*
X140178669Y-84364439D01*
X140131050Y-84459677D01*
X140083430Y-84507296D01*
X139988192Y-84554915D01*
D10*
X130868954Y-99932152D02*
X130868954Y-99532152D01*
X130773716Y-99532152D01*
X130716573Y-99551200D01*
X130678478Y-99589295D01*
X130659430Y-99627390D01*
X130640382Y-99703581D01*
X130640382Y-99760724D01*
X130659430Y-99836914D01*
X130678478Y-99875010D01*
X130716573Y-99913105D01*
X130773716Y-99932152D01*
X130868954Y-99932152D01*
X130259430Y-99932152D02*
X130488002Y-99932152D01*
X130373716Y-99932152D02*
X130373716Y-99532152D01*
X130411811Y-99589295D01*
X130449906Y-99627390D01*
X130488002Y-99646438D01*
X130011811Y-99532152D02*
X129973716Y-99532152D01*
X129935621Y-99551200D01*
X129916573Y-99570248D01*
X129897526Y-99608343D01*
X129878478Y-99684533D01*
X129878478Y-99779771D01*
X129897526Y-99855962D01*
X129916573Y-99894057D01*
X129935621Y-99913105D01*
X129973716Y-99932152D01*
X130011811Y-99932152D01*
X130049907Y-99913105D01*
X130068954Y-99894057D01*
X130088002Y-99855962D01*
X130107050Y-99779771D01*
X130107050Y-99684533D01*
X130088002Y-99608343D01*
X130068954Y-99570248D01*
X130049907Y-99551200D01*
X130011811Y-99532152D01*
X126621792Y-82470686D02*
X126221792Y-82470686D01*
X126221792Y-82565924D01*
X126240840Y-82623067D01*
X126278935Y-82661162D01*
X126317030Y-82680210D01*
X126393221Y-82699258D01*
X126450364Y-82699258D01*
X126526554Y-82680210D01*
X126564650Y-82661162D01*
X126602745Y-82623067D01*
X126621792Y-82565924D01*
X126621792Y-82470686D01*
X126621792Y-83080210D02*
X126621792Y-82851638D01*
X126621792Y-82965924D02*
X126221792Y-82965924D01*
X126278935Y-82927829D01*
X126317030Y-82889734D01*
X126336078Y-82851638D01*
X126259888Y-83232590D02*
X126240840Y-83251638D01*
X126221792Y-83289733D01*
X126221792Y-83384971D01*
X126240840Y-83423067D01*
X126259888Y-83442114D01*
X126297983Y-83461162D01*
X126336078Y-83461162D01*
X126393221Y-83442114D01*
X126621792Y-83213543D01*
X126621792Y-83461162D01*
D12*
X136451430Y-83447772D02*
X136213335Y-83281105D01*
X136451430Y-83162058D02*
X135951430Y-83162058D01*
X135951430Y-83352534D01*
X135975240Y-83400153D01*
X135999050Y-83423962D01*
X136046669Y-83447772D01*
X136118097Y-83447772D01*
X136165716Y-83423962D01*
X136189526Y-83400153D01*
X136213335Y-83352534D01*
X136213335Y-83162058D01*
X135999050Y-83638248D02*
X135975240Y-83662058D01*
X135951430Y-83709677D01*
X135951430Y-83828724D01*
X135975240Y-83876343D01*
X135999050Y-83900153D01*
X136046669Y-83923962D01*
X136094288Y-83923962D01*
X136165716Y-83900153D01*
X136451430Y-83614439D01*
X136451430Y-83923962D01*
X135951430Y-84376343D02*
X135951430Y-84138248D01*
X136189526Y-84114438D01*
X136165716Y-84138248D01*
X136141907Y-84185867D01*
X136141907Y-84304914D01*
X136165716Y-84352533D01*
X136189526Y-84376343D01*
X136237145Y-84400152D01*
X136356192Y-84400152D01*
X136403811Y-84376343D01*
X136427621Y-84352533D01*
X136451430Y-84304914D01*
X136451430Y-84185867D01*
X136427621Y-84138248D01*
X136403811Y-84114438D01*
X130653868Y-96746190D02*
X130820535Y-96508095D01*
X130939582Y-96746190D02*
X130939582Y-96246190D01*
X130749106Y-96246190D01*
X130701487Y-96270000D01*
X130677678Y-96293810D01*
X130653868Y-96341429D01*
X130653868Y-96412857D01*
X130677678Y-96460476D01*
X130701487Y-96484286D01*
X130749106Y-96508095D01*
X130939582Y-96508095D01*
X130463392Y-96293810D02*
X130439582Y-96270000D01*
X130391963Y-96246190D01*
X130272916Y-96246190D01*
X130225297Y-96270000D01*
X130201487Y-96293810D01*
X130177678Y-96341429D01*
X130177678Y-96389048D01*
X130201487Y-96460476D01*
X130487201Y-96746190D01*
X130177678Y-96746190D01*
X129749107Y-96246190D02*
X129844345Y-96246190D01*
X129891964Y-96270000D01*
X129915773Y-96293810D01*
X129963392Y-96365238D01*
X129987202Y-96460476D01*
X129987202Y-96650952D01*
X129963392Y-96698571D01*
X129939583Y-96722381D01*
X129891964Y-96746190D01*
X129796726Y-96746190D01*
X129749107Y-96722381D01*
X129725297Y-96698571D01*
X129701488Y-96650952D01*
X129701488Y-96531905D01*
X129725297Y-96484286D01*
X129749107Y-96460476D01*
X129796726Y-96436667D01*
X129891964Y-96436667D01*
X129939583Y-96460476D01*
X129963392Y-96484286D01*
X129987202Y-96531905D01*
X138229430Y-89391372D02*
X137991335Y-89224705D01*
X138229430Y-89105658D02*
X137729430Y-89105658D01*
X137729430Y-89296134D01*
X137753240Y-89343753D01*
X137777050Y-89367562D01*
X137824669Y-89391372D01*
X137896097Y-89391372D01*
X137943716Y-89367562D01*
X137967526Y-89343753D01*
X137991335Y-89296134D01*
X137991335Y-89105658D01*
X137777050Y-89581848D02*
X137753240Y-89605658D01*
X137729430Y-89653277D01*
X137729430Y-89772324D01*
X137753240Y-89819943D01*
X137777050Y-89843753D01*
X137824669Y-89867562D01*
X137872288Y-89867562D01*
X137943716Y-89843753D01*
X138229430Y-89558039D01*
X138229430Y-89867562D01*
X137729430Y-90034229D02*
X137729430Y-90367562D01*
X138229430Y-90153276D01*
X130304630Y-82482572D02*
X130066535Y-82315905D01*
X130304630Y-82196858D02*
X129804630Y-82196858D01*
X129804630Y-82387334D01*
X129828440Y-82434953D01*
X129852250Y-82458762D01*
X129899869Y-82482572D01*
X129971297Y-82482572D01*
X130018916Y-82458762D01*
X130042726Y-82434953D01*
X130066535Y-82387334D01*
X130066535Y-82196858D01*
X129852250Y-82673048D02*
X129828440Y-82696858D01*
X129804630Y-82744477D01*
X129804630Y-82863524D01*
X129828440Y-82911143D01*
X129852250Y-82934953D01*
X129899869Y-82958762D01*
X129947488Y-82958762D01*
X130018916Y-82934953D01*
X130304630Y-82649239D01*
X130304630Y-82958762D01*
X130304630Y-83196857D02*
X130304630Y-83292095D01*
X130280821Y-83339714D01*
X130257011Y-83363524D01*
X130185583Y-83411143D01*
X130090345Y-83434952D01*
X129899869Y-83434952D01*
X129852250Y-83411143D01*
X129828440Y-83387333D01*
X129804630Y-83339714D01*
X129804630Y-83244476D01*
X129828440Y-83196857D01*
X129852250Y-83173048D01*
X129899869Y-83149238D01*
X130018916Y-83149238D01*
X130066535Y-83173048D01*
X130090345Y-83196857D01*
X130114154Y-83244476D01*
X130114154Y-83339714D01*
X130090345Y-83387333D01*
X130066535Y-83411143D01*
X130018916Y-83434952D01*
D14*
X130195183Y-88649315D02*
X130923754Y-88649315D01*
X131009469Y-88692172D01*
X131052326Y-88735029D01*
X131095183Y-88820743D01*
X131095183Y-88992172D01*
X131052326Y-89077886D01*
X131009469Y-89120743D01*
X130923754Y-89163600D01*
X130195183Y-89163600D01*
X130280897Y-89549315D02*
X130238040Y-89592172D01*
X130195183Y-89677886D01*
X130195183Y-89892172D01*
X130238040Y-89977886D01*
X130280897Y-90020743D01*
X130366611Y-90063600D01*
X130452326Y-90063600D01*
X130580897Y-90020743D01*
X131095183Y-89506457D01*
X131095183Y-90063600D01*
X131095183Y-90920743D02*
X131095183Y-90406458D01*
X131095183Y-90663600D02*
X130195183Y-90663600D01*
X130323754Y-90577886D01*
X130409469Y-90492172D01*
X130452326Y-90406458D01*
M02*
