G04 #@! TF.FileFunction,Other,User*
%FSLAX46Y46*%
G04 Gerber Fmt 4.6, Leading zero omitted, Abs format (unit mm)*
G04 Created by KiCad (PCBNEW 4.0.4+e1-6308~48~ubuntu15.10.1-stable) date Thu Jul 19 16:03:55 2018*
%MOMM*%
%LPD*%
G01*
G04 APERTURE LIST*
%ADD10C,0.100000*%
%ADD11C,0.050000*%
G04 APERTURE END LIST*
D10*
D11*
X76997240Y-59390840D02*
X76997240Y-62190840D01*
X72197240Y-62190840D02*
X72197240Y-59390840D01*
X72197240Y-62190840D02*
X76997240Y-62190840D01*
X72997240Y-59390840D02*
X76197240Y-59390840D01*
X76997240Y-43790840D02*
X76997240Y-46590840D01*
X72197240Y-46590840D02*
X72197240Y-43790840D01*
X72197240Y-46590840D02*
X76997240Y-46590840D01*
X72997240Y-43790840D02*
X76197240Y-43790840D01*
X61840000Y-62480000D02*
X67240000Y-62480000D01*
X67240000Y-62480000D02*
X67240000Y-58980000D01*
X67240000Y-58980000D02*
X61840000Y-58980000D01*
X61840000Y-58980000D02*
X61840000Y-62480000D01*
X61890000Y-46890000D02*
X67290000Y-46890000D01*
X67290000Y-46890000D02*
X67290000Y-43390000D01*
X67290000Y-43390000D02*
X61890000Y-43390000D01*
X61890000Y-43390000D02*
X61890000Y-46890000D01*
X183070000Y-78010000D02*
X188470000Y-78010000D01*
X188470000Y-78010000D02*
X188470000Y-74510000D01*
X188470000Y-74510000D02*
X183070000Y-74510000D01*
X183070000Y-74510000D02*
X183070000Y-78010000D01*
X65450000Y-92280000D02*
X68950000Y-92280000D01*
X65450000Y-92280000D02*
X65450000Y-90530000D01*
X68950000Y-90530000D02*
X68950000Y-92280000D01*
X68950000Y-90530000D02*
X65450000Y-90530000D01*
X54307640Y-107120800D02*
X50807640Y-107120800D01*
X54307640Y-107120800D02*
X54307640Y-108870800D01*
X50807640Y-108870800D02*
X50807640Y-107120800D01*
X50807640Y-108870800D02*
X54307640Y-108870800D01*
X94546440Y-113300400D02*
X98046440Y-113300400D01*
X94546440Y-113300400D02*
X94546440Y-111550400D01*
X98046440Y-111550400D02*
X98046440Y-113300400D01*
X98046440Y-111550400D02*
X94546440Y-111550400D01*
X94546440Y-111471600D02*
X98046440Y-111471600D01*
X94546440Y-111471600D02*
X94546440Y-109721600D01*
X98046440Y-109721600D02*
X98046440Y-111471600D01*
X98046440Y-109721600D02*
X94546440Y-109721600D01*
X53150000Y-40000000D02*
X50050000Y-40000000D01*
X53150000Y-40000000D02*
X53150000Y-41800000D01*
X50050000Y-41800000D02*
X50050000Y-40000000D01*
X50050000Y-41800000D02*
X53150000Y-41800000D01*
X53300000Y-55850000D02*
X50200000Y-55850000D01*
X53300000Y-55850000D02*
X53300000Y-57650000D01*
X50200000Y-57650000D02*
X50200000Y-55850000D01*
X50200000Y-57650000D02*
X53300000Y-57650000D01*
X56447240Y-62690840D02*
X59547240Y-62690840D01*
X56447240Y-62690840D02*
X56447240Y-60890840D01*
X59547240Y-60890840D02*
X59547240Y-62690840D01*
X59547240Y-60890840D02*
X56447240Y-60890840D01*
X56447240Y-47090840D02*
X59547240Y-47090840D01*
X56447240Y-47090840D02*
X56447240Y-45290840D01*
X59547240Y-45290840D02*
X59547240Y-47090840D01*
X59547240Y-45290840D02*
X56447240Y-45290840D01*
X66897240Y-67940840D02*
X66897240Y-64840840D01*
X66897240Y-67940840D02*
X65097240Y-67940840D01*
X65097240Y-64840840D02*
X66897240Y-64840840D01*
X65097240Y-64840840D02*
X65097240Y-67940840D01*
X66897240Y-52340840D02*
X66897240Y-49240840D01*
X66897240Y-52340840D02*
X65097240Y-52340840D01*
X65097240Y-49240840D02*
X66897240Y-49240840D01*
X65097240Y-49240840D02*
X65097240Y-52340840D01*
X65450000Y-96300000D02*
X68550000Y-96300000D01*
X65450000Y-96300000D02*
X65450000Y-94500000D01*
X68550000Y-94500000D02*
X68550000Y-96300000D01*
X68550000Y-94500000D02*
X65450000Y-94500000D01*
X68550000Y-99300000D02*
X65450000Y-99300000D01*
X68550000Y-99300000D02*
X68550000Y-101100000D01*
X65450000Y-101100000D02*
X65450000Y-99300000D01*
X65450000Y-101100000D02*
X68550000Y-101100000D01*
X54150000Y-105100000D02*
X51050000Y-105100000D01*
X54150000Y-105100000D02*
X54150000Y-106900000D01*
X51050000Y-106900000D02*
X51050000Y-105100000D01*
X51050000Y-106900000D02*
X54150000Y-106900000D01*
X51050000Y-103400000D02*
X54150000Y-103400000D01*
X51050000Y-103400000D02*
X51050000Y-101600000D01*
X54150000Y-101600000D02*
X54150000Y-103400000D01*
X54150000Y-101600000D02*
X51050000Y-101600000D01*
X184377240Y-88720840D02*
X187477240Y-88720840D01*
X184377240Y-88720840D02*
X184377240Y-86920840D01*
X187477240Y-86920840D02*
X187477240Y-88720840D01*
X187477240Y-86920840D02*
X184377240Y-86920840D01*
X179977240Y-69730840D02*
X176877240Y-69730840D01*
X179977240Y-69730840D02*
X179977240Y-71530840D01*
X176877240Y-71530840D02*
X176877240Y-69730840D01*
X176877240Y-71530840D02*
X179977240Y-71530840D01*
X53350000Y-63200000D02*
X50250000Y-63200000D01*
X53350000Y-63200000D02*
X53350000Y-65000000D01*
X50250000Y-65000000D02*
X50250000Y-63200000D01*
X50250000Y-65000000D02*
X53350000Y-65000000D01*
X53250000Y-47400000D02*
X50150000Y-47400000D01*
X53250000Y-47400000D02*
X53250000Y-49200000D01*
X50150000Y-49200000D02*
X50150000Y-47400000D01*
X50150000Y-49200000D02*
X53250000Y-49200000D01*
X56780000Y-90150000D02*
X56780000Y-94650000D01*
X56780000Y-90150000D02*
X59780000Y-90150000D01*
X59780000Y-94650000D02*
X56780000Y-94650000D01*
X59780000Y-94650000D02*
X59780000Y-90150000D01*
X139453640Y-81224000D02*
X142953640Y-81224000D01*
X142953640Y-81224000D02*
X142953640Y-86924000D01*
X142953640Y-86924000D02*
X139453640Y-86924000D01*
X139453640Y-86924000D02*
X139453640Y-81224000D01*
X139155240Y-87962800D02*
X139155240Y-91462800D01*
X139155240Y-87962800D02*
X140905240Y-87962800D01*
X140905240Y-91462800D02*
X139155240Y-91462800D01*
X140905240Y-91462800D02*
X140905240Y-87962800D01*
X139207240Y-85369200D02*
X139207240Y-82169200D01*
X139207240Y-82169200D02*
X137307240Y-82169200D01*
X137307240Y-85369200D02*
X137307240Y-82169200D01*
X139207240Y-85369200D02*
X137307240Y-85369200D01*
X132333240Y-99351200D02*
X132333240Y-97651200D01*
X132333240Y-97651200D02*
X128433240Y-97651200D01*
X128433240Y-97651200D02*
X128433240Y-99351200D01*
X128433240Y-99351200D02*
X132333240Y-99351200D01*
X126840840Y-84906400D02*
X128540840Y-84906400D01*
X128540840Y-84906400D02*
X128540840Y-81006400D01*
X128540840Y-81006400D02*
X126840840Y-81006400D01*
X126840840Y-81006400D02*
X126840840Y-84906400D01*
X137125240Y-85319200D02*
X137125240Y-82219200D01*
X137125240Y-85319200D02*
X135325240Y-85319200D01*
X135325240Y-82219200D02*
X137125240Y-82219200D01*
X135325240Y-82219200D02*
X135325240Y-85319200D01*
X128782440Y-97420000D02*
X131882440Y-97420000D01*
X128782440Y-97420000D02*
X128782440Y-95620000D01*
X131882440Y-95620000D02*
X131882440Y-97420000D01*
X131882440Y-95620000D02*
X128782440Y-95620000D01*
X138903240Y-91262800D02*
X138903240Y-88162800D01*
X138903240Y-91262800D02*
X137103240Y-91262800D01*
X137103240Y-88162800D02*
X138903240Y-88162800D01*
X137103240Y-88162800D02*
X137103240Y-91262800D01*
X129178440Y-81254000D02*
X129178440Y-84354000D01*
X129178440Y-81254000D02*
X130978440Y-81254000D01*
X130978440Y-84354000D02*
X129178440Y-84354000D01*
X130978440Y-84354000D02*
X130978440Y-81254000D01*
X135938040Y-93463600D02*
X125438040Y-93463600D01*
X135938040Y-86063600D02*
X125438040Y-86063600D01*
X135938040Y-93463600D02*
X135938040Y-86063600D01*
X125438040Y-93463600D02*
X125438040Y-86063600D01*
M02*
