G04 #@! TF.FileFunction,Other,Comment*
%FSLAX46Y46*%
G04 Gerber Fmt 4.6, Leading zero omitted, Abs format (unit mm)*
G04 Created by KiCad (PCBNEW 4.0.4+e1-6308~48~ubuntu15.10.1-stable) date Thu Jul 19 16:03:55 2018*
%MOMM*%
%LPD*%
G01*
G04 APERTURE LIST*
%ADD10C,0.100000*%
%ADD11C,0.150000*%
G04 APERTURE END LIST*
D10*
D11*
X183328200Y-121151000D02*
X183294866Y-121184333D01*
X183194866Y-121217667D01*
X183128200Y-121217667D01*
X183028200Y-121184333D01*
X182961533Y-121117667D01*
X182928200Y-121051000D01*
X182894866Y-120917667D01*
X182894866Y-120817667D01*
X182928200Y-120684333D01*
X182961533Y-120617667D01*
X183028200Y-120551000D01*
X183128200Y-120517667D01*
X183194866Y-120517667D01*
X183294866Y-120551000D01*
X183328200Y-120584333D01*
X183928200Y-120517667D02*
X183794866Y-120517667D01*
X183728200Y-120551000D01*
X183694866Y-120584333D01*
X183628200Y-120684333D01*
X183594866Y-120817667D01*
X183594866Y-121084333D01*
X183628200Y-121151000D01*
X183661533Y-121184333D01*
X183728200Y-121217667D01*
X183861533Y-121217667D01*
X183928200Y-121184333D01*
X183961533Y-121151000D01*
X183994866Y-121084333D01*
X183994866Y-120917667D01*
X183961533Y-120851000D01*
X183928200Y-120817667D01*
X183861533Y-120784333D01*
X183728200Y-120784333D01*
X183661533Y-120817667D01*
X183628200Y-120851000D01*
X183594866Y-120917667D01*
X184594867Y-120751000D02*
X184594867Y-121217667D01*
X184428200Y-120484333D02*
X184261533Y-120984333D01*
X184694867Y-120984333D01*
X184928200Y-121017667D02*
X185261534Y-121017667D01*
X184861534Y-121217667D02*
X185094867Y-120517667D01*
X185328200Y-121217667D01*
X185961534Y-121151000D02*
X185928200Y-121184333D01*
X185828200Y-121217667D01*
X185761534Y-121217667D01*
X185661534Y-121184333D01*
X185594867Y-121117667D01*
X185561534Y-121051000D01*
X185528200Y-120917667D01*
X185528200Y-120817667D01*
X185561534Y-120684333D01*
X185594867Y-120617667D01*
X185661534Y-120551000D01*
X185761534Y-120517667D01*
X185828200Y-120517667D01*
X185928200Y-120551000D01*
X185961534Y-120584333D01*
M02*
